<?xml version="1.0" encoding="utf-8"?>
<!-- Generator: Adobe Illustrator 26.3.1, SVG Export Plug-In . SVG Version: 6.00 Build 0)  -->
<svg version="1.1" id="レイヤー_1" xmlns="http://www.w3.org/2000/svg" xmlns:xlink="http://www.w3.org/1999/xlink" x="0px"
	 y="0px" viewBox="0 0 187.12 53.28" style="enable-background:new 0 0 187.12 53.28;" xml:space="preserve">
<g>
	<path d="M3.12,24.24L0,20.88l1.68-1.62c0,0,1.38,1.44,2.04,2.22c3.06-1.32,6.3-2.64,9.24-3.78l3.9-1.62l0.6-0.24l4.38,3.42
		l-1.5,1.86c0,0-0.78-0.66-1.56-1.26c-0.84,1.5-1.74,2.94-2.7,4.44c2.52,1.32,5.88,3.36,7.68,4.44l-1.26,1.98
		c-1.44-0.84-3.9-2.34-6.12-3.6l-0.84,21.12l-2.46-0.12l0.84-20.7c-2.88,3.96-6.24,7.74-10.14,11.4l-1.68-1.8
		c6.12-5.82,10.86-11.82,14.46-18.3c-1.08,0.48-2.76,1.14-2.76,1.14c-3.12,1.26-6.66,2.7-9.9,4.08L3.12,24.24z M13.62,6.72
		c-0.48,0-3.78-0.24-3.78-0.24l0.18-2.46l4.38,0.3l0.24,0.12c1.5,0.84,2.58,1.56,3.9,2.4l1.32,0.84l-1.32,2.1l-1.32-0.84
		C15.96,8.16,14.94,7.5,13.62,6.72z M47.94,14.88l5.04,3.18l-1.26,1.98c0,0-0.66-0.42-1.44-0.9l-6.36,12l-1.32-0.72
		c-1.32,0.06-3.36,0.18-3.42,0.18c-0.3,0-0.54,0.06-0.78,0.06L37.74,53.1l-2.52-0.06c0,0,0.36-10.5,0.66-21.78
		c-0.66,0.18-1.32,0.42-2.28,0.72l-2.7,0.78l0.3,1.74l-2.34,0.36c0,0-2.28-14.34-2.46-15.42c-0.84-0.42-3.72-1.92-3.72-1.92
		l1.08-2.04l4.08,2.04c2.76-0.48,5.64-0.9,8.52-1.32c0.18-6.72,0.36-11.82,0.36-12.3c-0.96-0.48-3.24-1.68-3.24-1.68L34.68,0
		l4.56,2.4l-0.42,13.5c3.06-0.42,6.06-0.72,8.7-0.96L47.94,14.88z M36.3,18.6c-2.52,0.36-5.04,0.72-7.5,1.14l1.74,10.8l2.28-0.78
		c1.02-0.3,1.68-0.54,2.4-0.78c0.24-0.06,0.48-0.12,0.78-0.18c0-1.5,0.06-3,0.12-4.5c-1.14,0.24-2.34,0.48-3.72,0.84l-0.54-2.28
		c1.62-0.42,2.94-0.66,4.32-0.96C36.18,20.82,36.24,19.68,36.3,18.6z M48.24,17.88c-0.42-0.3-0.72-0.48-0.9-0.6
		c-2.64,0.24-5.58,0.6-8.58,0.96l-0.12,3.24l1.92-0.36l0.42,2.28l-2.4,0.48l-0.12,4.44c0.12-0.06,0.3-0.06,0.42-0.06H39l3.9-0.18
		L48.24,17.88z"/>
	<path d="M95.04,14.22l6.78,2.82l-0.9,2.28c0,0-1.5-0.6-3.06-1.26L91.98,31.2l-2.28-0.96l0.36-0.78c-1.14,0.24-2.4,0.48-3.72,0.72
		c-3.06,0.66-6.18,1.32-8.76,1.92c-3.72,8.22-9.42,15.48-16.8,21.18l-1.56-2.1c8.28-6.36,14.34-14.82,17.64-24.48
		c-0.66-0.84-3-3.6-3-3.6l1.98-1.68l3.96,4.74l-0.18,0.66c-0.3,0.84-0.6,1.68-0.9,2.46c2.22-0.48,4.74-1.02,7.14-1.5
		c1.98-0.42,3.84-0.78,5.46-1.14l4.26-9.48c-0.36-0.18-0.6-0.24-0.72-0.3c-3.3,0.9-6.66,1.74-10.02,2.58l-5.1,1.32l-3.3-2.22
		l1.38-2.1c0,0,1.74,1.2,2.4,1.68c0.84-0.24,4.02-1.08,4.02-1.08c3.42-0.84,7.02-1.74,10.38-2.7L95.04,14.22z M78.48,9.78
		l-2.64-3.24l1.98-1.56c0,0,1.08,1.38,1.62,2.1c1.86-0.42,3.78-0.84,5.82-1.32c3.42-0.72,6.96-1.5,10.86-2.34l0.48,2.46
		c-3.9,0.78-7.38,1.56-10.8,2.34c-2.28,0.48-4.44,0.96-6.6,1.44L78.48,9.78z"/>
</g>
<g>
	<path d="M145.69,45.08v1.23H139v-1.23c0,0,1.8,0,2.01,0c-0.15-0.18-5.85-7.8-5.91-7.86c-0.06,0.03-0.21,0.06-0.21,0.06
		s-2.97,1.32-3.03,1.35c0,0.09,0,6.33,0,6.45c0.12,0,2.64,0,2.64,0v1.23h-6.72v-1.23c0,0,2.55,0,2.67,0c0-0.12,0-16.11,0-16.23
		c-0.12,0-2.67,0-2.67,0v-1.23h6.72v1.23c0,0-2.52,0-2.64,0c0,0.12,0,8.07,0,8.25c0.48-0.21,2.94-1.29,2.94-1.29
		s4.77-6.75,4.92-6.96c-0.24,0-2.22,0-2.22,0v-1.23h6.69v1.23c0,0-2.91,0-2.97,0c-0.03,0.06-5.1,7.23-5.16,7.29
		c0.06,0.09,6.69,8.91,6.72,8.94C142.84,45.08,145.69,45.08,145.69,45.08z"/>
	<path d="M158.89,40.22c0,3.42-2.67,6.21-5.94,6.21c-3.24,0-5.91-2.79-5.91-6.21s2.67-6.18,5.91-6.18
		C156.22,34.04,158.89,36.8,158.89,40.22z M152.95,45.17c2.52,0,4.47-2.16,4.47-4.95c0-2.76-1.95-4.92-4.47-4.92
		c-2.49,0-4.44,2.16-4.44,4.92C148.51,43.01,150.46,45.17,152.95,45.17z"/>
	<path d="M174.13,40.22c0,3.36-2.67,6.21-5.88,6.21c-1.56,0-3-0.66-4.11-1.89c0,0-0.3-0.39-0.45-0.6c0,0.27,0,0.9,0,0.9v1.47h-3.42
		v-1.23c0,0,1.92,0,2.04,0c0-0.12,0-17.55,0-17.67c-0.12,0-2.04,0-2.04,0v-1.23h3.42v9.54c0,0,0,0.54,0,0.81
		c0.18-0.24,0.45-0.63,0.45-0.63c1.11-1.2,2.55-1.86,4.11-1.86C171.46,34.04,174.13,36.86,174.13,40.22z M168.25,45.2
		c2.52,0,4.47-2.19,4.47-4.98c0-2.76-1.95-4.95-4.47-4.95c-2.49,0-4.53,2.22-4.53,4.95C163.72,42.95,165.76,45.2,168.25,45.2z"/>
	<path d="M185.32,42.62l1.11,0.72l-0.36,0.51c-1.08,1.62-2.82,2.58-4.68,2.58c-3.24,0-5.88-2.79-5.88-6.21
		c0-3.39,2.64-6.18,5.88-6.18c2.88,0,5.34,2.34,5.7,5.4l0.03,0.09c0,0-9.99,0-10.11,0c-0.03,0.15-0.03,0.69-0.03,0.69
		c0,2.79,1.92,4.98,4.41,4.98c1.44,0,2.76-0.75,3.6-2.07L185.32,42.62z M177.28,38.3c0.21,0,8.1,0,8.31,0
		c-0.06-0.15-0.18-0.36-0.18-0.36c-0.78-1.65-2.34-2.67-4.02-2.67c-1.68,0-3.18,1.02-3.93,2.67
		C177.46,37.94,177.34,38.18,177.28,38.3z"/>
</g>
</svg>
