<?xml version="1.0" encoding="utf-8"?>
<!-- Generator: Adobe Illustrator 26.3.1, SVG Export Plug-In . SVG Version: 6.00 Build 0)  -->
<svg version="1.1" id="レイヤー_1" xmlns="http://www.w3.org/2000/svg" xmlns:xlink="http://www.w3.org/1999/xlink" x="0px"
	 y="0px" viewBox="0 0 194.74 53.39" style="enable-background:new 0 0 194.74 53.39;" xml:space="preserve">
<g>
	<path d="M48.24,12.06l-7.02-0.78c-1.62-0.18-3.12-0.06-4.86,0.3c-3.24,0.66-6.9,1.44-10.8,2.22c-7.62,1.62-15.54,3.24-20.88,4.5
		l-0.6,0.12L0,14.82l1.56-1.74c0,0,2.46,2.16,3.18,2.76C9.9,14.7,17.1,13.2,24.24,11.7c0.12-1.62,0.3-5.16,0.36-6.36
		c-1.5-0.36-6.72-1.68-6.72-1.68l0.6-2.4l8.76,2.22l-0.48,7.68C30,10.5,33.12,9.84,35.88,9.3c1.98-0.42,3.72-0.54,5.58-0.36
		l7.02,0.78L48.24,12.06z M9.48,42.12c0.9-1.38,2.04-3.3,3.36-5.64c-0.06-0.6-0.24-3.24-0.24-3.24l2.46-0.18l0.3,4.02l-0.18,0.3
		c-1.44,2.58-2.7,4.62-3.66,6.12L9.48,42.12z M27.54,28.92l-3.12,0.9l2.46,1.44l-0.48,10.5c-0.06,2.58-0.36,4.86-0.96,7.68
		l-2.46-0.54c0.36-1.5,0.54-2.82,0.72-4.14l-5.7-1.8l0.48-1.86l5.46,1.32c0-0.24,0-0.48,0-0.72c0,0,0.36-7.8,0.36-9.06
		c-0.78-0.48-2.4-1.38-2.4-1.38l0.48-0.78l-2.88,0.9l0.3,1.8l-2.34,0.36c0,0-1.56-9.72-1.74-10.74c-0.72-0.42-3-1.62-3-1.62
		l1.08-2.04l4.08,2.1v0.06c3.9-1.08,9.3-2.34,14.28-3.24l0.54-0.12l4.32,3.12l-1.38,1.92c0,0-0.78-0.54-1.62-1.14l-4.62,8.1
		L27.54,28.92z M28.62,26.52l3.48-6.06c-4.92,0.9-10.08,2.1-13.86,3.18l0.96,5.76L28.62,26.52z M36.24,34.08
		c-0.54-0.18-3.78-1.2-3.78-1.2l0.78-2.34l4.38,1.32l0.24,0.24c1.44,1.56,2.82,3.18,4.62,5.58l-1.92,1.5
		C38.88,37.02,37.62,35.46,36.24,34.08z"/>
	<path d="M60.36,25.86l-3-3.42L58.98,21c0,0,1.56,1.74,2.16,2.4c3.24-0.72,7.68-1.74,12.48-2.76c0.06-0.96,0.24-3.06,0.42-5.4
		c-1.68,0.36-3.18,0.66-4.8,1.02l-0.6,0.12L66,13.56l1.68-1.5c0,0,1.14,1.26,1.68,1.86c1.62-0.3,3.12-0.6,4.8-0.96
		c0.36-4.08,0.66-8.28,0.72-8.94c-0.9-0.54-3.24-1.98-3.24-1.98L72.84,0l4.56,2.7l-0.78,9.78c0,0,0,0,0.06,0l4.5-0.9l0.42,2.22
		l-4.5,0.84c-0.24,0.06-0.42,0.12-0.66,0.12l-0.36,5.34c3.12-3.42,6-6.72,8.4-9.78c-0.78-0.72-2.04-1.98-2.04-1.98l1.62-1.62
		l3.42,3.42l-0.6,0.78c-1.98,2.58-4.38,5.46-7.02,8.34l1.92-0.42c1.62-0.36,2.64-0.42,4.2-0.3l5.82,0.6l-0.24,2.22
		c0,0-5.7-0.6-5.76-0.6c-1.32-0.12-2.16-0.06-3.54,0.24l-4.98,1.14c-1.38,1.44-2.76,2.88-4.2,4.32l0.9,0.66
		c2.4-0.72,5.76-1.68,7.86-2.22l0.48-0.12l5.34,3.18l-1.14,1.86c0,0-0.9-0.54-1.98-1.14l-0.36,14.28l-2.34-0.06l0.06-2.04h-1.2
		c-1.2,0-1.98,0.12-2.82,0.42c0,0-2.58,0.9-3.48,1.26l-0.12,2.22l-2.34-0.18c0,0,0.96-14.1,1.02-15.3c-0.36-0.3-1.02-0.72-1.56-1.14
		c-3.78,3.72-7.68,7.26-11.28,10.26l-1.44-1.74c4.68-3.9,9.84-8.76,14.64-13.68c-4.8,1.02-9.24,2.04-12.3,2.7L60.36,25.86z
		 M74.58,40.26l2.64-0.96c0.9-0.3,1.92-0.54,3.48-0.54c0,0,0.6,0,1.26,0l0.3-11.46c-0.12-0.06-0.24-0.12-0.3-0.18
		c-1.86,0.54-4.44,1.26-6.6,1.86l-0.24,3.6c1.56-0.42,3.12-0.84,5.22-1.44l0.54,2.04c-2.4,0.66-4.08,1.08-5.94,1.62L74.58,40.26z
		 M108.24,10.5c-1.98,3.48-3.96,6.3-6.24,9.3c3.66,1.32,5.34,3,6.12,4.26c0.96,1.5,1.14,4.32,1.14,6.06c0,0.54,0,0.96-0.06,1.26
		l-2.34-0.12c0.06-0.96,0.06-1.92,0-2.76l-6.84,0.66l-0.3-1.86l6.84-1.02c-0.12-0.42-0.24-0.72-0.42-0.96
		c-0.48-0.84-1.98-2.4-5.94-3.6l-0.9-0.3l0.06-0.96l0.24-2.34l0.72,0.06c2.1-2.82,3.96-5.52,5.82-8.76
		c-0.18-0.12-0.3-0.18-0.42-0.24c-1.14,0.42-2.16,0.9-3.24,1.32c-1.8,0.78-3.72,1.56-6.12,2.4l-0.72,0.24l-3.18-3.3l1.62-1.56
		c0,0,1.56,1.62,2.22,2.28c2.04-0.72,3.72-1.44,5.34-2.1c1.2-0.48,2.4-1.02,3.78-1.56l0.48-0.12l5.82,3.06l-1.08,1.98
		C110.64,11.82,109.44,11.16,108.24,10.5z M94.2,53.16c0,0,1.38-30.24,1.44-31.5c-0.78-0.54-3.12-2.34-3.12-2.34l1.44-1.98l4.2,3.12
		l-1.5,32.82L94.2,53.16z"/>
</g>
<g>
	<path d="M143.83,44.12v1.23h-6.69v-1.23c0,0,1.8,0,2.01,0c-0.15-0.18-5.85-7.8-5.91-7.86c-0.06,0.03-0.21,0.06-0.21,0.06
		s-2.97,1.32-3.03,1.35c0,0.09,0,6.33,0,6.45c0.12,0,2.64,0,2.64,0v1.23h-6.72v-1.23c0,0,2.55,0,2.67,0c0-0.12,0-16.11,0-16.23
		c-0.12,0-2.67,0-2.67,0v-1.23h6.72v1.23c0,0-2.52,0-2.64,0c0,0.12,0,8.07,0,8.25c0.48-0.21,2.94-1.29,2.94-1.29
		s4.77-6.75,4.92-6.96c-0.24,0-2.22,0-2.22,0v-1.23h6.69v1.23c0,0-2.91,0-2.97,0c-0.03,0.06-5.1,7.23-5.16,7.29
		c0.06,0.09,6.69,8.91,6.72,8.94C140.98,44.12,143.83,44.12,143.83,44.12z"/>
	<path d="M158.71,32.99v1.23c0,0-1.86,0-1.95,0c-0.03,0.06-7.83,19.17-7.83,19.17h-2.91v-1.23c0,0,1.86,0,1.95,0
		c0.03-0.09,3.18-7.8,3.18-7.86c0-0.03-3.96-10.02-3.99-10.08c-0.09,0-1.98,0-1.98,0v-1.23h5.46v1.23c0,0-1.98,0-2.16,0
		c0.06,0.12,0.12,0.36,0.12,0.33c0,0,3.12,7.83,3.24,8.1c0.09-0.27,3.33-8.28,3.42-8.43c-0.18,0-2.13,0-2.13,0v-1.23H158.71z"/>
	<path d="M171.91,39.26c0,3.42-2.67,6.21-5.94,6.21c-3.24,0-5.91-2.79-5.91-6.21s2.67-6.18,5.91-6.18
		C169.24,33.08,171.91,35.84,171.91,39.26z M165.97,44.21c2.52,0,4.47-2.16,4.47-4.95c0-2.76-1.95-4.92-4.47-4.92
		c-2.49,0-4.44,2.16-4.44,4.92C161.53,42.05,163.48,44.21,165.97,44.21z"/>
	<path d="M181.51,44.09l-0.48,0.39c-0.63,0.51-1.41,0.78-2.22,0.78c-2.16,0-3.81-1.74-3.81-4.02c0,0,0-6.9,0-7.02
		c-0.12,0-1.71,0-1.71,0v-1.23c0,0,1.59,0,1.71,0c0-0.12,0-1.8,0-1.8h1.38c0,0,0,1.68,0,1.8c0.12,0,4.95,0,4.95,0v1.23
		c0,0-4.83,0-4.95,0c0,0.12,0,7.02,0,7.02c0,1.68,0.99,2.79,2.43,2.79c0.6,0,1.08-0.33,1.41-0.6l0.42-0.39L181.51,44.09z"/>
	<path d="M194.74,39.26c0,3.42-2.67,6.21-5.94,6.21c-3.24,0-5.91-2.79-5.91-6.21s2.67-6.18,5.91-6.18
		C192.07,33.08,194.74,35.84,194.74,39.26z M188.8,44.21c2.52,0,4.47-2.16,4.47-4.95c0-2.76-1.95-4.92-4.47-4.92
		c-2.49,0-4.44,2.16-4.44,4.92C184.36,42.05,186.31,44.21,188.8,44.21z"/>
</g>
</svg>
