<?xml version="1.0" encoding="utf-8"?>
<!-- Generator: Adobe Illustrator 26.3.1, SVG Export Plug-In . SVG Version: 6.00 Build 0)  -->
<svg version="1.1" id="レイヤー_1" xmlns="http://www.w3.org/2000/svg" xmlns:xlink="http://www.w3.org/1999/xlink" x="0px"
	 y="0px" viewBox="0 0 182.56 53.94" style="enable-background:new 0 0 182.56 53.94;" xml:space="preserve">
<g>
	<path d="M43.2,31.5c2.28,0.54,4.8,1.02,7.5,1.5l0.24,0.06l-0.48,2.52l-0.18-0.06c-2.64-0.48-5.34-0.96-7.74-1.56
		c-3.24-0.9-4.68-1.74-6.78-3.54c-2.64-2.22-5.28-4.74-7.86-7.2c0,0-1.62-1.44-1.86-1.68c-0.24-0.12-2.94-1.38-3.9-1.8
		c-3.54,7.5-10.5,13.5-21.12,18.18L0,35.7c9.96-4.44,16.44-9.96,19.8-16.8c-5.04,0.9-9.72,1.74-13.08,2.4l-0.78,0.18L3.78,18.3
		l1.98-1.32c0,0,0.78,1.2,1.26,1.92c3.66-0.72,8.64-1.62,13.86-2.58c1.08-2.76,1.86-5.7,2.88-9.48c0,0,0.18-0.6,0.3-1.14
		c-0.96-0.66-3.6-2.64-3.6-2.64l1.5-1.98l4.26,3.18l0.66,0.48l-0.72,2.7c-0.9,3.3-1.62,5.94-2.46,8.4c3.42-0.6,6.84-1.2,10.02-1.74
		l7.98-1.38L42.12,15l-8.04,1.44c-3,0.48-6.24,1.08-9.48,1.62l2.7,1.26l0.18,0.06l2.16,2.04c2.52,2.4,5.16,4.86,7.74,7.08
		C39.3,30.12,40.44,30.78,43.2,31.5z M8.52,48.6c0.42-1.62,0.72-3.12,0.9-4.68c-0.06-0.3-0.48-2.94-0.48-2.94l2.46-0.42l0.54,3.36
		l-0.06,0.12c-0.18,1.74-0.48,3.36-0.96,5.16L8.52,48.6z M16.02,38.1c1.8-0.36,3.84-0.84,5.94-1.32c3.84-0.9,7.8-1.86,11.64-2.58
		l0.48,2.28c-3,0.6-6.12,1.32-9.12,1.98l0.54,0.36l0.6,0.36l-0.3,6.84c-0.12,2.28-0.54,4.26-1.08,6.78l-2.34-0.54
		c0.3-1.44,0.54-2.52,0.72-3.54l-4.08-1.2l0.36-1.86l3.96,0.84c0-0.24,0-0.42,0-0.6c0,0,0.24-4.26,0.3-5.4
		c-0.6-0.36-1.68-0.96-2.1-1.26c-2.04,0.48-3.96,0.96-5.7,1.32l-0.6,0.12l-2.52-2.58l1.68-1.62C14.4,36.48,15.48,37.56,16.02,38.1z
		 M19.74,33.06l-0.9,0.24l-2.58-2.22l1.56-1.8c0,0,1.08,0.96,1.68,1.44c2.64-0.6,5.4-1.32,8.88-2.1l0.54,2.28
		C25.32,31.74,22.5,32.4,19.74,33.06z M31.86,41.7l1.08-2.28l3.24,1.56l0.18,0.18c1.14,1.2,1.86,2.04,2.7,3l1.02,1.2l-1.92,1.62
		l-1.02-1.2c-0.78-0.9-1.44-1.74-2.4-2.76C34.32,42.84,31.86,41.7,31.86,41.7z"/>
	<path d="M75.66,40.62l-0.54,8.94c3-2.88,6.06-6,9.18-9.24l1.68,1.62c-3.84,4.02-7.62,7.86-11.34,11.34l-0.72,0.66l-4.44-3.48
		l1.44-1.86c0,0,0.9,0.72,1.74,1.44c0.3-4.5,1.62-27.24,1.68-28.2c-0.66-0.6-2.82-2.64-2.82-2.64l1.68-1.74l3.6,3.36V21
		c1.02-0.36,1.98-0.66,3-1.02l3.18-1.08l0.78,2.1l-3.24,1.08c-1.32,0.42-2.58,0.84-3.84,1.32l-0.36,5.52
		c1.74-0.72,3.48-1.38,5.16-1.98c1.08-0.36,2.16-0.78,3.24-1.2l1.56-12.54c-2.64,0.78-4.56,1.44-6.6,2.1l-3.72,1.26l-3-2.52
		l1.44-1.8c0,0,1.38,1.14,2.04,1.68c0.78-0.3,2.46-0.84,2.46-0.84c2.22-0.72,4.26-1.44,7.2-2.28l0.42-0.12l6.24,2.94l-0.96,2.1
		c0,0-1.74-0.78-3.24-1.5l-1.98,16.44l-2.4-0.3l0.24-2.16c-0.72,0.3-1.44,0.54-2.22,0.84c-1.92,0.72-3.96,1.44-6,2.28l-0.42,6.48
		c1.56-0.9,3.06-1.8,4.56-2.7c-0.42-0.24-0.84-0.54-1.32-0.78l1.32-2.1c0.78,0.48,1.62,0.96,2.4,1.44c3.54-2.16,6.84-4.32,9.48-6.18
		c-0.66-0.9-1.56-2.04-1.56-2.04L92.52,24l3,3.96l-0.96,0.72c-2.58,1.86-5.88,4.08-9.6,6.36c2.46,1.5,4.92,3,7.44,4.44
		c2.1,1.2,3,1.44,4.98,1.8c3.36,0.54,5.46,0.84,8.58,1.2l-0.3,2.46c-3.18-0.36-5.28-0.66-8.64-1.26c-2.22-0.36-3.42-0.66-5.82-2.04
		c-2.94-1.68-5.82-3.42-8.58-5.16C80.34,37.86,78,39.24,75.66,40.62z M73.68,50.82h0.12c0,0,0,0.06-0.06,0.06
		C73.74,50.88,73.74,50.82,73.68,50.82z M80.46,0l0.24,0.06c2.28,0.78,3.9,1.44,5.7,2.16l-0.96,2.34C83.7,3.84,82.2,3.3,80.1,2.52
		c-0.42,0.06-3.72,0.12-3.72,0.12l-0.06-2.52L80.22,0H80.46z"/>
</g>
<g>
	<path d="M146.26,28.7v1.23c0,0-2.49,0-2.61,0c0,0.12,0,17.79,0,17.79s-14.64-16.26-14.85-16.53c0,0.33,0,14.85,0,14.97
		c0.12,0,2.64,0,2.64,0v1.23h-6.72v-1.23c0,0,2.55,0,2.67,0c0-0.12,0-16.11,0-16.23c-0.12,0-2.67,0-2.67,0V28.7h3.72
		c0,0,13.59,15.12,13.8,15.36c0-0.33,0-14.01,0-14.13c-0.12,0-2.64,0-2.64,0V28.7H146.26z"/>
	<path d="M159.19,46.16v1.23h-3.42c0,0,0-1.17,0-1.47c-0.15,0.21-0.42,0.51-0.42,0.51c-0.81,0.72-1.83,1.08-2.91,1.08
		c-2.61,0-4.8-2.16-4.8-4.74s2.19-4.74,4.8-4.74c1.08,0,2.1,0.36,2.91,1.08c0,0,0.3,0.33,0.45,0.51c-0.03-0.27-0.03-0.72-0.03-0.72
		c-0.03-0.36-0.09-0.69-0.21-0.99c-0.42-1.02-1.32-1.65-2.31-1.65c-0.75,0-1.8,0.12-3.18,0.39l-0.63,0.12l-0.21-1.2l0.6-0.12
		c1.47-0.3,2.61-0.33,3.42-0.33c1.14,0,2.13,0.36,2.82,1.08c0.72,0.72,1.11,1.71,1.11,2.88c0,0,0,6.96,0,7.08
		C157.3,46.16,159.19,46.16,159.19,46.16z M152.44,46.28c1.89,0,3.36-1.53,3.36-3.51s-1.47-3.51-3.36-3.51
		c-1.89,0-3.36,1.53-3.36,3.51S150.55,46.28,152.44,46.28z"/>
	<path d="M169.66,35.75v3.15h-1.23c0,0,0-2.28,0-2.37c-0.09-0.03-0.18-0.06-0.18-0.06c-0.27-0.09-0.54-0.12-0.81-0.12
		c-1.47,0-3.42,1.95-3.42,3.42c0,0,0,6.27,0,6.39c0.12,0,2.01,0,2.01,0v1.23h-5.46v-1.23c0,0,1.92,0,2.04,0c0-0.12,0-9.57,0-9.69
		c-0.12,0-2.04,0-2.04,0v-1.23h3.42l0.03,1.02c0,0,0,0.45,0,0.69c0.12-0.18,0.42-0.51,0.42-0.51c0.87-0.87,1.89-1.32,3-1.32
		c0.57,0,1.11,0.12,1.62,0.36L169.66,35.75z"/>
	<path d="M182.56,46.16v1.23h-3.42c0,0,0-1.17,0-1.47c-0.15,0.21-0.42,0.51-0.42,0.51c-0.81,0.72-1.83,1.08-2.91,1.08
		c-2.61,0-4.8-2.16-4.8-4.74s2.19-4.74,4.8-4.74c1.08,0,2.1,0.36,2.91,1.08c0,0,0.3,0.33,0.45,0.51c-0.03-0.27-0.03-0.72-0.03-0.72
		c-0.03-0.36-0.09-0.69-0.21-0.99c-0.42-1.02-1.32-1.65-2.31-1.65c-0.75,0-1.8,0.12-3.18,0.39l-0.63,0.12l-0.21-1.2l0.6-0.12
		c1.47-0.3,2.61-0.33,3.42-0.33c1.14,0,2.13,0.36,2.82,1.08c0.72,0.72,1.11,1.71,1.11,2.88c0,0,0,6.96,0,7.08
		C180.67,46.16,182.56,46.16,182.56,46.16z M175.81,46.28c1.89,0,3.36-1.53,3.36-3.51s-1.47-3.51-3.36-3.51
		c-1.89,0-3.36,1.53-3.36,3.51S173.92,46.28,175.81,46.28z"/>
</g>
</svg>
