<?xml version="1.0" encoding="utf-8"?>
<!-- Generator: Adobe Illustrator 26.3.1, SVG Export Plug-In . SVG Version: 6.00 Build 0)  -->
<svg version="1.1" id="_イヤー_2" xmlns="http://www.w3.org/2000/svg" xmlns:xlink="http://www.w3.org/1999/xlink" x="0px"
	 y="0px" viewBox="0 0 637.7 87.2" style="enable-background:new 0 0 637.7 87.2;" xml:space="preserve">
<style type="text/css">
	.st0{fill:#333333;}
</style>
<g id="base">
	<g>
		<path class="st0" d="M36.6,68.2c0,13.4-6.8,17.7-18.4,17.7H0V1.4h17.9c12.2,0,18.7,4.6,18.7,19.1V68.2z M22,19
			c0-4.8-1.4-5.9-4.5-5.9h-2.9v61.2h2.6c3.5,0,4.7-1.4,4.7-5.4V19z"/>
		<path class="st0" d="M97.3,85.9H82.6l-1.1-11.8h-8.7l-1.1,11.8H59.5L70.4,1.4h15.7C86.1,1.4,97.4,85.9,97.3,85.9z M80.1,62.4
			l-2.6-33.7L74,62.4H80.1z"/>
		<path class="st0" d="M135.9,85.9h-14.6V1.4h14.6V85.9z"/>
		<path class="st0" d="M178.9,87.2c-10.9,0-17.7-5.5-17.7-17.9V18.4C161.1,6.2,168,0,178.6,0c9.7,0,16.7,3.4,16.7,18.6
			c0,4.2-0.4,8.4-0.9,11.5l-11.1-0.9c0.4-3,0.8-6.1,0.8-9c0-7.9-1.9-9-4.5-9s-3.9,1.1-3.9,5.4v53.9c0,3.8,1,5.6,4.3,5.6
			c2.4,0,4.1-1.7,4.1-9.7c0-2.6-0.3-5.8-0.8-9l11.2-0.9c0.4,3.1,0.9,6.7,0.9,11.7C195.5,83.7,188.4,87.2,178.9,87.2z"/>
		<path class="st0" d="M257.4,86.1h-14.5V48.7h-8.4v37.2H220V1.4h14.5v35.4h8.4V1.4h14.5V86.1z"/>
		<path class="st0" d="M298.2,85.9h-14.6V1.4h14.6V85.9z"/>
		<path class="st0" d="M415.6,13.1h-15v25.3H413v11.5h-12.4v36.2H386V1.4h29.6V13.1z"/>
		<path class="st0" d="M475.5,69.5c0,11.8-7.3,17.7-18,17.7s-17.9-5.9-17.9-17.6V1.4h14.5v69.6c0,3.2,1.6,4.8,4.2,4.8
			c2.3,0,3.3-1.7,3.3-4.9V1.4h14L475.5,69.5L475.5,69.5z"/>
		<path class="st0" d="M540.1,86.1h-15.2L518,51.5l-2.1,5.5v29.2h-14.6V1.4h14.6v25l8.9-25h14l-11.7,30.8L540.1,86.1L540.1,86.1z"/>
		<path class="st0" d="M597.3,69.5c0,11.8-7.3,17.7-18,17.7s-17.9-5.9-17.9-17.6V1.4h14.5v69.6c0,3.2,1.7,4.8,4.2,4.8
			c2.3,0,3.3-1.7,3.3-4.9V1.4h14V69.5z"/>
		<path class="st0" d="M637.7,85.9H623V1.4h14.6V85.9z"/>
	</g>
</g>
</svg>
