<?xml version="1.0" encoding="utf-8"?>
<!-- Generator: Adobe Illustrator 26.3.1, SVG Export Plug-In . SVG Version: 6.00 Build 0)  -->
<svg version="1.1" id="レイヤー_1" xmlns="http://www.w3.org/2000/svg" xmlns:xlink="http://www.w3.org/1999/xlink" x="0px"
	 y="0px" viewBox="0 0 274.8 28.5" style="enable-background:new 0 0 274.8 28.5;" xml:space="preserve">
<style type="text/css">
	.st0{fill:#333333;}
</style>
<g>
	<path class="st0" d="M152.4-586.4c4.9,0,7.1,2.2,7.1,6.1c0,3.7-2.7,6.2-7.3,6.2h-4.8v8.5c0,0.9-0.6,1.4-1.4,1.4
		c-0.9,0-1.4-0.5-1.4-1.4v-17c0-2.7,1-3.8,3.6-3.8H152.4z M152.2-576.2c2.8,0,4.4-1.6,4.4-4.1c0-2.5-1.4-3.9-4.3-3.9h-3.5
		c-1,0-1.5,0.6-1.5,1.6v6.4H152.2z"/>
	<path class="st0" d="M167.7-575.3c0-7.2,4.2-11.3,9.5-11.3c5.4,0,9.5,4.1,9.5,11.3c0,7.3-4.1,11.4-9.5,11.4
		C171.9-563.9,167.7-568,167.7-575.3z M183.8-575.3c0-5.5-2.6-9-6.6-9c-4,0-6.6,3.5-6.6,9c0,5.6,2.6,9.1,6.6,9.1
		C181.2-566.2,183.8-569.7,183.8-575.3z"/>
	<path class="st0" d="M198.9-565.6c0,0.9-0.5,1.4-1.4,1.4c-0.9,0-1.3-0.5-1.3-1.4v-17c0-2.7,1-3.8,3.6-3.8h3.3
		c4.9,0,7.3,2.3,7.3,5.9c0,2.8-1.6,5-4.3,5.8l5.4,8.4c0.2,0.3,0.3,0.5,0.3,0.8c0,0.8-0.7,1.4-1.5,1.4c-0.5,0-0.9-0.3-1.2-0.8
		l-5.5-9.2h-4.6V-565.6z M203.2-576.4c2.9,0,4.5-1.6,4.5-4.1c0-2.5-1.6-3.8-4.5-3.8h-2.7c-1,0-1.5,0.6-1.5,1.6v6.3H203.2z"/>
	<path class="st0" d="M228.3-565.6c0,0.9-0.6,1.4-1.4,1.4c-0.9,0-1.4-0.5-1.4-1.4v-18.3h-5.6c-0.8,0-1.2-0.4-1.2-1.1
		c0-0.8,0.5-1.1,1.2-1.1h13.9c0.8,0,1.3,0.3,1.3,1.1c0,0.7-0.5,1.1-1.3,1.1h-5.5V-565.6z"/>
	<path class="st0" d="M243.9-582.4c0-2.7,1-3.8,3.6-3.8h8.5c0.7,0,1.2,0.4,1.2,1.1c0,0.7-0.5,1.1-1.2,1.1h-7.9
		c-0.9,0-1.5,0.7-1.5,1.6v5.4h7.6c0.7,0,1.2,0.4,1.2,1.1s-0.5,1.1-1.2,1.1h-7.6v9.1c0,0.9-0.6,1.4-1.4,1.4s-1.4-0.5-1.4-1.4V-582.4z
		"/>
	<path class="st0" d="M264.8-575.3c0-7.2,4.2-11.3,9.5-11.3c5.4,0,9.5,4.1,9.5,11.3c0,7.3-4.1,11.4-9.5,11.4
		C269-563.9,264.8-568,264.8-575.3z M281-575.3c0-5.5-2.6-9-6.6-9c-4,0-6.6,3.5-6.6,9c0,5.6,2.6,9.1,6.6,9.1
		C278.4-566.2,281-569.7,281-575.3z"/>
	<path class="st0" d="M305.6-566.6c0.7,0,1.2,0.4,1.2,1.1c0,0.8-0.5,1.1-1.2,1.1h-8.6c-2.5,0-3.6-1-3.6-3.8V-585
		c0-0.9,0.6-1.4,1.4-1.4c0.8,0,1.4,0.5,1.4,1.4v16.9c0,1,0.5,1.5,1.4,1.5H305.6z"/>
	<path class="st0" d="M315.6-585c0-0.9,0.5-1.4,1.4-1.4c0.8,0,1.4,0.5,1.4,1.4v19.3c0,0.9-0.6,1.4-1.4,1.4c-0.9,0-1.4-0.5-1.4-1.4
		V-585z"/>
	<path class="st0" d="M328-575.3c0-7.2,4.2-11.3,9.5-11.3c5.4,0,9.5,4.1,9.5,11.3c0,7.3-4.1,11.4-9.5,11.4
		C332.1-563.9,328-568,328-575.3z M344.1-575.3c0-5.5-2.6-9-6.6-9c-4,0-6.6,3.5-6.6,9c0,5.6,2.6,9.1,6.6,9.1
		C341.5-566.2,344.1-569.7,344.1-575.3z"/>
	<path class="st0" d="M385.9-574.7c-4.1-1.2-5.8-3-5.8-6.4c0-3.3,2.7-5.5,6.5-5.5c2.4,0,4.4,0.7,6.1,2.5c0.3,0.3,0.4,0.5,0.4,0.9
		c0,0.8-0.7,1.4-1.4,1.4c-0.4,0-0.7-0.1-1-0.4c-1.2-1.6-2.5-2.1-4.1-2.1c-2.4,0-3.8,1.1-3.8,3.2c0,2.2,1.2,3.1,4.2,3.9l1,0.3
		c4.1,1.2,6,2.9,6,6.6c0,3.7-2.8,6.4-7,6.4c-3.3,0-5.8-1.3-7.2-3.1c-0.3-0.4-0.4-0.7-0.4-1c0-0.6,0.7-1.3,1.4-1.3
		c0.4,0,0.7,0.2,1,0.5c1.4,1.8,3.2,2.6,5.2,2.6c2.6,0,4.2-1.6,4.2-4.1c0-2.1-1.3-3.2-4.3-4L385.9-574.7z"/>
	<path class="st0" d="M403.5-585c0-0.9,0.5-1.4,1.4-1.4c0.8,0,1.4,0.5,1.4,1.4v19.3c0,0.9-0.6,1.4-1.4,1.4c-0.9,0-1.4-0.5-1.4-1.4
		V-585z"/>
	<path class="st0" d="M424.8-565.6c0,0.9-0.6,1.4-1.4,1.4c-0.9,0-1.4-0.5-1.4-1.4v-18.3h-5.6c-0.8,0-1.2-0.4-1.2-1.1
		c0-0.8,0.5-1.1,1.2-1.1h13.9c0.8,0,1.3,0.3,1.3,1.1c0,0.7-0.5,1.1-1.3,1.1h-5.5V-565.6z"/>
	<path class="st0" d="M453.4-566.6c0.7,0,1.2,0.4,1.2,1.1c0,0.8-0.5,1.1-1.2,1.1H444c-2.6,0-3.6-1-3.6-3.8v-14.3
		c0-2.7,1-3.8,3.6-3.8h8.5c0.7,0,1.2,0.4,1.2,1.1c0,0.7-0.5,1.1-1.2,1.1h-7.9c-0.9,0-1.5,0.7-1.5,1.6v5.4h7.6c0.7,0,1.2,0.4,1.2,1.1
		s-0.5,1.1-1.2,1.1h-7.6v6.5c0,1,0.6,1.6,1.5,1.6H453.4z"/>
</g>
<g>
	<path class="st0" d="M5.9,18.2H4.8v9.9H0V0.5h5.7c4.1,0,6.1,2.2,6.1,8.7C11.8,16.1,9.3,18.2,5.9,18.2z M5.3,4.3H4.8v10.1h0.5
		c1.1,0,1.8-1.1,1.8-5.2C7.1,5.3,6.5,4.3,5.3,4.3z"/>
	<path class="st0" d="M33.2,22.4c0,4.5-2.7,6.1-5.9,6.1c-3.3,0-6-1.7-6-6.1V6.1c0-4.5,2.8-6.1,6-6.1c3.2,0,5.9,1.6,5.9,6.1V22.4z
		 M28.4,5.2c0-1.1-0.6-1.5-1.2-1.5c-0.7,0-1.2,0.4-1.2,1.5v18.1c0,1,0.5,1.5,1.3,1.5c0.7,0,1.2-0.4,1.2-1.5V5.2z"/>
	<path class="st0" d="M50.5,28.2c-0.2-0.5-0.3-1.1-0.4-1.7C50,24.1,50,23.2,50,21.5c-0.1-4.1-0.6-4.6-1.2-4.6h-0.7v11.3h-4.8V0.5h6
		c3.9,0,5.9,2.2,5.9,7.3c0,3.9-0.3,5.9-2.7,7.1c2.1,1.3,2.3,4.6,2.3,6.3v2.1c0,2.6,0.1,3.6,0.5,4.9H50.5z M48.7,4.3h-0.6V13h0.6
		c1.1,0,1.8-0.9,1.8-4.6C50.5,4.9,49.8,4.3,48.7,4.3z"/>
	<path class="st0" d="M76.8,4.3H73v23.9h-4.8V4.3h-3.7V0.5h12.3V4.3z"/>
	<path class="st0" d="M96.2,4.3h-4.9v8.3h4.1v3.8h-4.1v11.8h-4.8V0.5h9.7V4.3z"/>
	<path class="st0" d="M117.6,22.4c0,4.5-2.7,6.1-5.9,6.1c-3.3,0-6-1.7-6-6.1V6.1c0-4.5,2.8-6.1,6-6.1c3.2,0,5.9,1.6,5.9,6.1V22.4z
		 M112.9,5.2c0-1.1-0.6-1.5-1.2-1.5c-0.7,0-1.2,0.4-1.2,1.5v18.1c0,1,0.5,1.5,1.3,1.5c0.7,0,1.2-0.4,1.2-1.5V5.2z"/>
	<path class="st0" d="M137.5,28.2h-9.7V0.5h4.8v23.8h4.9V28.2z"/>
	<path class="st0" d="M152.2,28.1h-4.8V0.5h4.8V28.1z"/>
	<path class="st0" d="M174.2,22.4c0,4.5-2.7,6.1-5.9,6.1c-3.3,0-6-1.7-6-6.1V6.1c0-4.5,2.8-6.1,6-6.1c3.2,0,5.9,1.6,5.9,6.1V22.4z
		 M169.4,5.2c0-1.1-0.6-1.5-1.2-1.5c-0.7,0-1.2,0.4-1.2,1.5v18.1c0,1,0.5,1.5,1.3,1.5c0.7,0,1.2-0.4,1.2-1.5V5.2z"/>
	<path class="st0" d="M218.7,22.2c0,4.4-2.3,6.3-5.8,6.3c-3.7,0-5.2-2.3-5.2-6.3c0-1.5,0.1-2.9,0.3-3.9l3.6,0.4
		c-0.1,1-0.3,2.1-0.3,3.1c0,2.3,0.4,3,1.3,3c0.8,0,1.2-0.6,1.2-2.3v-0.8c0-2.1-0.6-3.9-2.9-6.8c-2.3-2.8-3.3-5.1-3.3-8.2V6.3
		c0-3.6,1.4-6.3,5.5-6.3c3.9,0,5.1,2.5,5.1,6.3c0,1.4-0.1,2.3-0.3,3.4l-3.6-0.4c0.1-0.9,0.2-1.2,0.2-2.6c0-2.4-0.4-3-1.1-3
		c-0.8,0-1,0.5-1,2.2v0.6c0,1.6,0.6,3.2,2.3,5.4c2.4,3.1,4,6.4,4,9.9V22.2z"/>
	<path class="st0" d="M233.2,28.1h-4.8V0.5h4.8V28.1z"/>
	<path class="st0" d="M255.3,4.3h-3.8v23.9h-4.8V4.3H243V0.5h12.3V4.3z"/>
	<path class="st0" d="M274.8,28.1h-9.7V0.5h9.7v3.8h-4.9V12h4.1v3.9h-4.1v8.5h4.9V28.1z"/>
</g>
</svg>
