<?xml version="1.0" encoding="utf-8"?>
<!-- Generator: Adobe Illustrator 26.3.1, SVG Export Plug-In . SVG Version: 6.00 Build 0)  -->
<svg version="1.1" id="path" xmlns="http://www.w3.org/2000/svg" xmlns:xlink="http://www.w3.org/1999/xlink" x="0px" y="0px"
	 viewBox="0 0 555 555" style="enable-background:new 0 0 555 555;" xml:space="preserve">
<style type="text/css">
	.st0{clip-path:url(#SVGID_00000128465647139856111770000006036009284411785907_);}
	.st1{fill:none;stroke:#333333;stroke-width:5;stroke-miterlimit:10;}
	.st2{fill:#333333;stroke:#333333;stroke-width:5;stroke-miterlimit:10;}
</style>
<g>
	<defs>
		<circle id="SVGID_1_" cx="278" cy="277" r="275"/>
	</defs>
	<clipPath id="SVGID_00000038408191959243954650000009340811869837241021_">
		<use xlink:href="#SVGID_1_"  style="overflow:visible;"/>
	</clipPath>
	<g style="clip-path:url(#SVGID_00000038408191959243954650000009340811869837241021_);">
		<path class="st1" d="M411.1,586c0,0-26-78-50-105s-42-20-42-20s-0.5,23.5-39.5,20.5s-42-30-42-30s-20,6-36,10s-54,34-56,105"/>
		<path class="st1" d="M318.6,461.5c-29-18-8-28,0-30c28-3,113-12,97-168c0,0,56,30,27-41c0,0,42,30,2-52c0,0,15,12,10-7
			s-36-90-97-76"/>
		<path class="st1" d="M354.6,54.5c0,0-20,5-18,18c0,0-17-38-29-18"/>
		<path class="st1" d="M297.6,68.5c0,0-85-46-169,48c0,0-15,22,5,13c0,0-32,23-33,47s10,7,10,7s-30,48-8,43c0,0-14,21,0,31
			c0,0,15-11,32,3"/>
		<path class="st1" d="M123.6,313.5c0,0-23-7-5-24"/>
		<path class="st1" d="M237.6,451.5c0,0,41,0,0-25c-33-7-79-31-94-91c-88,13-59-73-41-78"/>
		<path class="st1" d="M140.6,315.5c0,0,2,17,3,20"/>
		<path class="st1" d="M415.6,263.5c0,0-27-21-32-29c0,0-21,62-77-2c0,0-2,61-51,15c0,0-25,42-57,5c0,0-19,27-48,5"/>
		<path class="st1" d="M252.6,273.5c0,0-10-6-15,9"/>
		<path class="st1" d="M255.6,291.5"/>
		<path class="st1" d="M255.6,291.5c0,0-12-5-20,7"/>
		<path class="st1" d="M359.6,288.5c0,0-2-14-16-11"/>
		<path class="st1" d="M351.6,299.5c0,0-5-11-16-7"/>
		<ellipse class="st2" cx="339.1" cy="308.5" rx="5.5" ry="7"/>
		<ellipse class="st2" cx="252.1" cy="307.5" rx="5.5" ry="7"/>
		<path class="st1" d="M308.6,367.5c0,0-16,19-51-5"/>
	</g>
</g>
<circle class="st1" cx="277.5" cy="277.5" r="275"/>
</svg>
