<?xml version="1.0" encoding="UTF-8"?><svg id="_イヤー_2" xmlns="http://www.w3.org/2000/svg" viewBox="0 0 752.29 74.5"><g id="base"><g><path d="M21.9,74c-10.8,0-20.7-1.3-21.4-12-.3-4.9-.5-13-.5-21.4C0,29.5,.3,17.9,.6,12.4,1.4,.3,11.1,.3,21.6,.3c3,0,5.9,.1,7.4,.2,22.1,1.4,33.7,16.7,33.7,36.5,0,35.3-27.5,37-40.8,37ZM27.6,6.2c-.7,0-2.3-.1-4.1-.1-9.8,0-16,.1-16.5,7.1-.3,4-.5,14.6-.5,25.1,0,9.1,.1,18,.5,22.2,.5,4.8,2.3,7.7,13.1,7.7,13.9,0,36-.7,36-31.2,0-17.7-10.4-30.3-28.5-30.8Z"/><path d="M132.4,73.6c-1.2,0-2.5-.7-3.1-2.3-1.2-2.9-5-13.2-8.1-22.4-.3-.8-.6-1.2-1.6-1.2-1.6-.1-6.4-.1-11.5-.1-7.1,0-15,0-17.1,.1-.9,0-1.3,.6-1.5,1.2-2.6,8-5.7,17.4-7.2,22.3-.5,1.7-1.9,2.4-3.2,2.4-1.5,0-3.1-1-3.1-2.7,0-.3,.1-.7,.2-1,5.6-18.1,17.3-50.2,22.1-64,1.3-3.6,4.1-5.3,6.8-5.3,2.9,0,5.8,1.8,7.1,5.4,6.6,18.4,19.8,54.9,23.2,62.9,.2,.5,.3,1,.3,1.5,0,1.9-1.6,3.2-3.3,3.2Zm-14-32.9c-3.1-9.4-9.5-26.6-11.1-31.6-.5-1.5-1.2-2.2-2-2.2s-1.6,.8-2.2,2.4c-2.1,5.7-11,31.4-11,32.2,0,.4,.3,.6,1.1,.6,2,0,7.4,.1,12.6,.1s10.4-.1,11.9-.1c.7,0,.9-.2,.9-.5s-.1-.6-.2-.9Z"/><path d="M160.8,70.4c0,2.1-1.7,3.1-3.4,3.1-1.6,0-3.3-1-3.3-3.1v-.1c.2-11.2,.3-23.6,.3-35.7,0-10.8-.1-21.4-.3-30.7v-.1c0-2.2,1.7-3.3,3.4-3.3,1.6,0,3.3,1.1,3.3,3.1v.1c-.1,9.7-.2,20.7-.2,32.1s.1,23.2,.2,34.5v.1Z"/><path d="M218.8,74.3c-23.2,0-35.8-17.9-35.8-36.6S195.4,0,219.4,0c15.3,0,25.2,9,25.2,12.6,0,1.9-1.5,3.3-3.3,3.3-.9,0-2-.4-2.8-1.5-4.7-5.9-12.1-8.7-19.6-8.7-19.7,0-29.4,17.4-29.4,31.6s9.6,30.6,29.1,30.6c9,0,17.9-3.6,22.8-10.2,.8-1.2,1.9-1.6,2.9-1.6,1.9,0,3.7,1.6,3.7,3.6,0,3.7-11.6,14.6-29.2,14.6Z"/><path d="M323.1,70.7c0,1.9-1.6,2.9-3.2,2.9-1.7,0-3.3-1-3.3-2.9v-.1c.1-5,.1-10.3,.1-15.1,0-6.5,0-12-.1-14.6,0-2-.8-2.4-1.8-2.4-3.8-.1-12-.2-20.1-.2s-16.1,.1-19.8,.2c-1.3,0-2.2,.1-2.2,2-.1,2.7-.2,8.9-.2,16.1,0,4.4,0,9.2,.2,14v.1c0,2-1.6,3-3.2,3s-3.2-1-3.2-3v-.1c.2-11,.3-24.6,.3-37.4,0-11.1-.1-21.6-.3-29.3v-.1c0-2,1.6-3.1,3.2-3.1s3.2,1.1,3.2,3.1v.1c-.1,4.2-.2,8.5-.2,12.5,0,6.1,.1,11.4,.2,14,0,1.8,.8,2.1,1.8,2.2,2.5,.1,10.8,.2,19.4,.2s17.6-.1,21.2-.2c1.3,0,1.5-.9,1.5-2.1,.1-2.4,.2-7.8,.2-14,0-4-.1-8.4-.2-12.6v-.1c0-2.1,1.6-3.1,3.2-3.1,1.7,0,3.3,1.1,3.3,3.1v.1c-.1,8.5-.2,21.3-.2,33.9s.1,25,.2,32.8v.1Z"/><path d="M355,70.4c0,2.1-1.7,3.1-3.4,3.1-1.6,0-3.3-1-3.3-3.1v-.1c.2-11.2,.3-23.6,.3-35.7,0-10.8-.1-21.4-.3-30.7v-.1c0-2.2,1.7-3.3,3.4-3.3,1.6,0,3.3,1.1,3.3,3.1v.1c-.1,9.7-.2,20.7-.2,32.1s.1,23.2,.2,34.5v.1Z"/><path d="M450.39,70.5c.2-12.1,.1-48.1,.4-58.7,.2-6.6,4.4-10.6,11.7-11,1.8-.1,7.2-.2,12.6-.2s10.7,.1,12.4,.2c2,.1,3,1.5,3,2.9s-1,2.8-3.2,2.8h-.1c-1.9-.1-8.6-.2-14.6-.2-3.9,0-7.5,.1-9.2,.2-4.3,.3-6.3,2.4-6.6,6.2-.2,2.5-.1,11.6-.2,17.5,0,1.6,.2,1.6,9.5,1.6,6,0,13.4-.1,15.7-.2,.5,0,3.3-.1,3.3,2.9,0,1.6-1.1,3.2-3.2,3.2h-.2c-2.6-.2-8.1-.2-13.2-.2-11.8,0-12,0-12,1.6,0,6.1,.1,20.2,.1,27.5v4c-.1,1.8-1.7,2.8-3.3,2.8-1.5,0-2.9-.9-2.9-2.8v-.1Z"/><path d="M565.5,3.8c-.2,8.8-.2,15.9-.2,22.9,0,5.7,0,11.3,.1,17.6,.3,19.5-13.1,30.2-28.1,30.2-13.9,0-27.7-9.7-27.7-29.4v-.4c.1-6.6,.1-13.5,.1-20.5s0-13.8-.2-20.4v-.1c0-2,1.6-3,3.3-3,1.6,0,3.2,1,3.2,3v.1c-.1,3.8-.1,7.7-.1,11.6,0,8.2,.1,16.4,.1,24.6v5.1c0,15.6,10.5,23.3,21.2,23.3s21.8-8,21.8-23.7c0-9,.1-18.2,.1-27.3,0-4.6,0-9.1-.1-13.6v-.1c0-2.1,1.6-3.1,3.2-3.1s3.3,1.1,3.3,3.1v.1Z"/><path d="M598.09,70.7c0,1.9-1.7,2.9-3.4,2.9-1.6,0-3.3-1-3.3-2.9v-.1c.2-10.9,.3-24.3,.3-36.9,0-11.4-.1-22.1-.3-29.9v-.1c0-2,1.7-3.1,3.4-3.1,1.6,0,3.3,1.1,3.3,3.1v.1c-.1,5.3-.2,11-.2,15.9s.1,9.1,.1,11.2c0,1.3,.3,2,3.2,2,1.7,0,3.4-.1,6.1-2.8,7.8-8.1,21-22.5,25.2-28.1,.7-.9,1.7-1.3,2.6-1.3,1.8,0,3.5,1.5,3.5,3.2,0,1.4-.2,2.4-27,29.8-.6,.6-.9,1.1-.9,1.5,0,.5,.3,.9,.8,1.5,9.6,9.8,22.8,22.2,31.3,30.6,.7,.7,1,1.6,1,2.5,0,1.9-1.6,3.8-3.5,3.8-.9,0-2-.5-2.9-1.5-8.4-9.3-21.2-21.9-30.2-31.6-.7-.8-2.1-1.9-5.1-1.9-.9,0-1.7,.1-2.5,.1-.7,0-1.6,.2-1.6,1.7-.1,2.4-.1,7.4-.1,13.6,0,5.1,0,10.9,.2,16.6v.1Z"/><path d="M719.1,3.8c-.2,8.8-.2,15.9-.2,22.9,0,5.7,0,11.3,.1,17.6,.3,19.5-13.1,30.2-28.1,30.2-13.9,0-27.7-9.7-27.7-29.4v-.4c.1-6.6,.1-13.5,.1-20.5s0-13.8-.2-20.4v-.1c0-2,1.6-3,3.3-3,1.6,0,3.2,1,3.2,3v.1c-.1,3.8-.1,7.7-.1,11.6,0,8.2,.1,16.4,.1,24.6v5.1c0,15.6,10.5,23.3,21.2,23.3s21.8-8,21.8-23.7c0-9,.1-18.2,.1-27.3,0-4.6,0-9.1-.1-13.6v-.1c0-2.1,1.6-3.1,3.2-3.1s3.3,1.1,3.3,3.1v.1Z"/><path d="M752.29,70.4c0,2.1-1.7,3.1-3.4,3.1-1.6,0-3.3-1-3.3-3.1v-.1c.2-11.2,.3-23.6,.3-35.7,0-10.8-.1-21.4-.3-30.7v-.1c0-2.2,1.7-3.3,3.4-3.3,1.6,0,3.3,1.1,3.3,3.1v.1c-.1,9.7-.2,20.7-.2,32.1s.1,23.2,.2,34.5v.1Z"/></g></g></svg>