<?xml version="1.0" encoding="utf-8"?>
<!-- Generator: Adobe Illustrator 26.3.1, SVG Export Plug-In . SVG Version: 6.00 Build 0)  -->
<svg version="1.1" id="レイヤー_1" xmlns="http://www.w3.org/2000/svg" xmlns:xlink="http://www.w3.org/1999/xlink" x="0px"
	 y="0px" viewBox="0 0 310 22.7" style="enable-background:new 0 0 310 22.7;" xml:space="preserve">
<style type="text/css">
	.st0{fill:#333333;}
</style>
<g>
	<path class="st0" d="M7.7,0.2c4.9,0,7.1,2.2,7.1,6.1c0,3.7-2.7,6.2-7.3,6.2H2.8V21c0,0.9-0.6,1.4-1.4,1.4C0.5,22.5,0,21.9,0,21V4
		c0-2.7,1-3.8,3.6-3.8H7.7z M7.6,10.4c2.8,0,4.4-1.6,4.4-4.1c0-2.5-1.4-3.9-4.3-3.9H4.3C3.3,2.4,2.8,3,2.8,4v6.4H7.6z"/>
	<path class="st0" d="M23.1,11.3C23.1,4.1,27.2,0,32.6,0c5.4,0,9.5,4.1,9.5,11.3c0,7.3-4.1,11.4-9.5,11.4
		C27.2,22.7,23.1,18.6,23.1,11.3z M39.2,11.3c0-5.5-2.6-9-6.6-9c-4,0-6.6,3.5-6.6,9c0,5.6,2.6,9.1,6.6,9.1
		C36.6,20.4,39.2,16.9,39.2,11.3z"/>
	<path class="st0" d="M54.3,21c0,0.9-0.5,1.4-1.4,1.4c-0.9,0-1.3-0.5-1.3-1.4V4c0-2.7,1-3.8,3.6-3.8h3.3c4.9,0,7.3,2.3,7.3,5.9
		c0,2.8-1.6,5-4.3,5.8l5.4,8.4c0.2,0.3,0.3,0.5,0.3,0.8c0,0.8-0.7,1.4-1.5,1.4c-0.5,0-0.9-0.3-1.2-0.8l-5.5-9.2h-4.6V21z M58.5,10.3
		c2.9,0,4.5-1.6,4.5-4.1c0-2.5-1.6-3.8-4.5-3.8h-2.7c-1,0-1.5,0.6-1.5,1.6v6.3H58.5z"/>
	<path class="st0" d="M83.6,21c0,0.9-0.6,1.4-1.4,1.4c-0.9,0-1.4-0.5-1.4-1.4V2.7h-5.6c-0.8,0-1.2-0.4-1.2-1.1
		c0-0.8,0.5-1.1,1.2-1.1h13.9c0.8,0,1.3,0.3,1.3,1.1c0,0.7-0.5,1.1-1.3,1.1h-5.5V21z"/>
	<path class="st0" d="M99.3,4.2c0-2.7,1-3.8,3.6-3.8h8.5c0.7,0,1.2,0.4,1.2,1.1c0,0.7-0.5,1.1-1.2,1.1h-7.9c-0.9,0-1.5,0.7-1.5,1.6
		v5.4h7.6c0.7,0,1.2,0.4,1.2,1.1s-0.5,1.1-1.2,1.1h-7.6V21c0,0.9-0.6,1.4-1.4,1.4s-1.4-0.5-1.4-1.4V4.2z"/>
	<path class="st0" d="M120.2,11.3c0-7.2,4.2-11.3,9.5-11.3c5.4,0,9.5,4.1,9.5,11.3c0,7.3-4.1,11.4-9.5,11.4
		C124.4,22.7,120.2,18.6,120.2,11.3z M136.3,11.3c0-5.5-2.6-9-6.6-9c-4,0-6.6,3.5-6.6,9c0,5.6,2.6,9.1,6.6,9.1
		C133.7,20.4,136.3,16.9,136.3,11.3z"/>
	<path class="st0" d="M160.9,20c0.7,0,1.2,0.4,1.2,1.1c0,0.8-0.5,1.1-1.2,1.1h-8.6c-2.5,0-3.6-1-3.6-3.8V1.7c0-0.9,0.6-1.4,1.4-1.4
		c0.8,0,1.4,0.5,1.4,1.4v16.9c0,1,0.5,1.5,1.4,1.5H160.9z"/>
	<path class="st0" d="M171,1.7c0-0.9,0.5-1.4,1.4-1.4c0.8,0,1.4,0.5,1.4,1.4V21c0,0.9-0.6,1.4-1.4,1.4c-0.9,0-1.4-0.5-1.4-1.4V1.7z"
		/>
	<path class="st0" d="M183.4,11.3c0-7.2,4.2-11.3,9.5-11.3c5.4,0,9.5,4.1,9.5,11.3c0,7.3-4.1,11.4-9.5,11.4
		C187.5,22.7,183.4,18.6,183.4,11.3z M199.5,11.3c0-5.5-2.6-9-6.6-9c-4,0-6.6,3.5-6.6,9c0,5.6,2.6,9.1,6.6,9.1
		C196.9,20.4,199.5,16.9,199.5,11.3z"/>
	<path class="st0" d="M241.3,12c-4.1-1.2-5.8-3-5.8-6.4c0-3.3,2.7-5.5,6.5-5.5c2.4,0,4.4,0.7,6.1,2.5c0.3,0.3,0.4,0.5,0.4,0.9
		c0,0.8-0.7,1.4-1.4,1.4c-0.4,0-0.7-0.1-1-0.4c-1.2-1.6-2.5-2.1-4.1-2.1c-2.4,0-3.8,1.1-3.8,3.2c0,2.2,1.2,3.1,4.2,3.9l1,0.3
		c4.1,1.2,6,2.9,6,6.6c0,3.7-2.8,6.4-7,6.4c-3.3,0-5.8-1.3-7.2-3.1c-0.3-0.4-0.4-0.7-0.4-1c0-0.6,0.7-1.3,1.4-1.3
		c0.4,0,0.7,0.2,1,0.5c1.4,1.8,3.2,2.6,5.2,2.6c2.6,0,4.2-1.6,4.2-4.1c0-2.1-1.3-3.2-4.3-4L241.3,12z"/>
	<path class="st0" d="M258.9,1.7c0-0.9,0.5-1.4,1.4-1.4c0.8,0,1.4,0.5,1.4,1.4V21c0,0.9-0.6,1.4-1.4,1.4c-0.9,0-1.4-0.5-1.4-1.4V1.7
		z"/>
	<path class="st0" d="M280.2,21c0,0.9-0.6,1.4-1.4,1.4c-0.9,0-1.4-0.5-1.4-1.4V2.7h-5.6c-0.8,0-1.2-0.4-1.2-1.1
		c0-0.8,0.5-1.1,1.2-1.1h13.9c0.8,0,1.3,0.3,1.3,1.1c0,0.7-0.5,1.1-1.3,1.1h-5.5V21z"/>
	<path class="st0" d="M308.8,20c0.7,0,1.2,0.4,1.2,1.1c0,0.8-0.5,1.1-1.2,1.1h-9.4c-2.6,0-3.6-1-3.6-3.8V4.2c0-2.7,1-3.8,3.6-3.8
		h8.5c0.7,0,1.2,0.4,1.2,1.1c0,0.7-0.5,1.1-1.2,1.1h-7.9c-0.9,0-1.5,0.7-1.5,1.6v5.4h7.6c0.7,0,1.2,0.4,1.2,1.1s-0.5,1.1-1.2,1.1
		h-7.6v6.5c0,1,0.6,1.6,1.5,1.6H308.8z"/>
</g>
<text transform="matrix(1 0 0 1 -145.845 614.6107)" class="st0" style="font-family:'BalboaPlus-Fill'; font-size:36px; letter-spacing:5;">PORTFOLIO  SITE</text>
</svg>
