<svg xmlns="http://www.w3.org/2000/svg" xmlns:xlink="http://www.w3.org/1999/xlink" width="300" height="60" viewBox="0 0 300 60">
  <defs>
    <clipPath id="clip-path">
      <rect id="長方形_1" data-name="長方形 1" width="300" height="60" transform="translate(20 10)" fill="#fff"/>
    </clipPath>
  </defs>
  <g id="マスクグループ_1" data-name="マスクグループ 1" transform="translate(-20 -10)" clip-path="url(#clip-path)">
    <g id="logo" transform="translate(19.999 15.717)">
      <g id="グループ_1" data-name="グループ 1">
        <path id="パス_1" data-name="パス 1" d="M77.53,16.5c0,.311-.4.559-.894.559-.068,0-.155-.025-.224-.025a18.366,18.366,0,0,0-2.5-.155,30.533,30.533,0,0,0-4.317.335c-.112,1.255-.18,2.485-.18,3.174,0,.826.043,1.969,2.975,1.969a5.7,5.7,0,0,0,2.124-.36,2.592,2.592,0,0,1,1.273-.36c.155,0,1.565.043,1.565.7,0,.919-3.491.963-4.491.963-2.056,0-4.429-.155-4.429-2.6,0-.112.025-.224.025-.335.112-1.23.155-2.168.18-2.994-1.093.18-2.081.422-2.932.627a6.12,6.12,0,0,1-1.366.292c-.491,0-2.571-.292-2.571-1.342,0-.18.068-.248.155-.248a1.634,1.634,0,0,1,.516.155,5.77,5.77,0,0,0,1.832.267,37.7,37.7,0,0,0,4.385-.584v-.491c0-2.261-.248-2.839-.783-2.994a8.657,8.657,0,0,1-1.366.155c-1.273,0-2.081-.6-2.081-1.143,0-.18.068-.267.18-.267a.592.592,0,0,1,.292.137,2.981,2.981,0,0,0,1.652.36,10.5,10.5,0,0,0,1.186-.068c1.23-.137,2.037-.36,2.839-.472.938-.137,1.205-.739,2.236-.739.267,0,1.59.087,1.59.758,0,.267-.292.516-.851.534a38.373,38.373,0,0,0-4.7.584c.981.826.981,1.273.981,1.565,0,.335-.112,1.453-.18,1.944,1.205-.18,2.416-.335,3.509-.447,1.3-.112,1.429-.4,2.168-.4C76.033,15.553,77.53,15.826,77.53,16.5Z" fill="#262626"/>
        <path id="パス_2" data-name="パス 2" d="M98.822,16.7c-1.255.043-4.249.025-6.907.18a21.6,21.6,0,0,0-3.422.4,5.446,5.446,0,0,1-1.255.18c-1.186,0-2.752-1.143-2.752-1.789,0-.137.068-.18.155-.18.025,0,.043,0,.559.292a4.81,4.81,0,0,0,1.969.311c.919,0,7.534-.311,10.373-.534.267-.025.627-.043.981-.043.559,0,1.745.043,1.745.559C100.276,16.386,99.692,16.671,98.822,16.7Z" fill="#262626"/>
        <path id="パス_3" data-name="パス 3" d="M117.8,14.727c-.18,8.9-7.087,11.224-7.671,11.224-.043,0-.068,0-.068-.025,0-.068.224-.267.894-.671,3.329-2.037,5.565-5.789,5.745-10.752.043-.963.043-1.652.087-2.727a6.518,6.518,0,0,0,.025-.671c0-1.59-.4-1.944-1.186-2.193-.2-.068-.311-.137-.311-.224a.813.813,0,0,1,.714-.491c.6,0,2.528,1.05,2.528,1.7a.947.947,0,0,1-.137.4C118.053,10.969,117.873,11.4,117.8,14.727Zm-4.714,2.329c0,.422-.224,1.478-.714,1.478-.267,0-.534-.379-.534-1.162a1.883,1.883,0,0,1,.025-.36c.087-.981.137-1.677.137-2.416,0-4.05-.491-4.18-1.522-4.385-.2-.025-.335-.087-.335-.2,0-.068.248-.491.938-.491.584,0,2.124.646,2.124,1.41a1.074,1.074,0,0,1-.155.447,2.532,2.532,0,0,0-.155,1.006c0,1.5.025,2.907.155,4.205C113.065,16.783,113.09,16.92,113.09,17.056Z" fill="#262626"/>
        <path id="パス_4" data-name="パス 4" d="M144.258,22.442a.671.671,0,0,1-.6.739,1.1,1.1,0,0,1-.826-.584,17.715,17.715,0,0,0-4.609-4.224,3.741,3.741,0,0,1-.4-.292c-4.851,5.391-9.969,6.149-10.174,6.149-.068,0-.112,0-.112-.043,0-.087.311-.267.671-.422,6.888-2.882,11.534-9.77,11.534-10.777,0-.248-.137-.422-.534-.422a18.189,18.189,0,0,0-3.87,1.186,4.522,4.522,0,0,1-1.453.491c-.758,0-2.373-.758-2.373-1.478,0-.311.112-.422.248-.422a.307.307,0,0,1,.267.2c.112.248.559.335,1.093.335a11.726,11.726,0,0,0,1.54-.137c.758-.087,2.77-.534,3.6-.646.671-.112,1.006-.646,1.5-.646.4,0,2.236.516,2.236,1.342a.406.406,0,0,1-.2.36,2.619,2.619,0,0,0-1.143,1.093,25.347,25.347,0,0,1-2.683,3.665C138.979,18.106,144.258,20.678,144.258,22.442Z" fill="#262626"/>
        <path id="パス_5" data-name="パス 5" d="M157.408,12.4c-1.255,0-4.851.043-6.864.248h-.025c-.4,0-1.031-.851-1.031-1.143,1.3.155,3.267.248,4.963.292V9.5a8.233,8.233,0,0,0-.248-1.944c0-.043-.025-.068-.025-.087a.053.053,0,0,1,.043-.043c.043,0,.112.025.18.025s1.926.112,1.926.584c0,.2-.311.422-.6.534-.224.087-.292.18-.292,3.267.87.025,1.609.043,2.037.043h1.565V8.522a7.8,7.8,0,0,0-.248-1.9c0-.043-.025-.068-.025-.087,0-.087.087-.087.224-.087.36.025,1.9.292,1.9.671,0,.224-.335.422-.627.559-.224.112-.248.087-.267.87v.559h3.329a.463.463,0,0,0,.379-.2c.18-.292.739-1.05,1.075-1.05a.292.292,0,0,1,.155.025c.646.224,1.814,1.143,1.814,1.54,0,.112-.112.224-.516.224h-6.261c0,.7.025,1.478.025,2.236h5.994a.463.463,0,0,0,.379-.2c.472-.671.87-1.118,1.093-1.118a.279.279,0,0,1,.137.025c.311.112,1.832,1.093,1.832,1.59,0,.137-.112.248-.491.248H157.408Zm9.5,13.323c0,.379-.4.627-.783.627a.508.508,0,0,1-.534-.559v-.025c0-.36.025-.7.025-1.031H152.942v.919a.756.756,0,0,1-.783.646.456.456,0,0,1-.491-.491v-.087A81.027,81.027,0,0,0,152,17.05a17.479,17.479,0,0,0-.292-3.2.364.364,0,0,1-.025-.137c0-.068.025-.068.087-.068.36,0,2.168.422,2.168.826,0,.112-.137.267-.472.447s-.335.2-.379.87c-.087,1.3-.137,3.311-.155,6.975a15.352,15.352,0,0,0,5.659-4.7h-.447a30.108,30.108,0,0,0-3.534.2h-.025c-.335,0-.981-.826-.981-1.075a37.038,37.038,0,0,0,4.584.311h.87a17.289,17.289,0,0,0-.267-4.112c0-.043-.025-.068-.025-.087,0-.043.043-.068.112-.068h.087a15.07,15.07,0,0,1,1.5.422c.267.068.379.2.379.335a.522.522,0,0,1-.311.4c-.627.335-.559.2-.6.938-.043.714-.043,1.41-.043,2.168h.472l.155-.267a10.393,10.393,0,0,0,1.814-3.062c.025-.112.025-.155.043-.155a.227.227,0,0,1,.112.068,9.38,9.38,0,0,1,1.23.894.259.259,0,0,1,.068.18c0,.112-.087.248-.4.248h-.2a.55.55,0,0,0-.422.2,20.624,20.624,0,0,1-2.236,1.9h2.149a.335.335,0,0,0,.2-.18c.025-.068.646-.919.783-.919.025,0,.068.025.087.025.584.267,1.453,1.031,1.453,1.385,0,.137-.087.248-.379.248h-4.919c0,.379.025.783.025,1.2,1.969.18,4.609.783,4.609,2.149,0,.379-.224.7-.534.7a.765.765,0,0,1-.584-.335,11.189,11.189,0,0,0-3.491-2.261c.025,1.006.068,2.149.087,3.509v.025a.641.641,0,0,1-.627.627c-.224,0-.447-.155-.447-.6v-.025l.112-3.938a12.167,12.167,0,0,1-6.106,3.938v1.075h12.7c.068-3.155.043-5.273.068-7.019a18.611,18.611,0,0,0-.36-3.242.792.792,0,0,1-.043-.18c0-.043.025-.043.087-.043.224,0,2.261.422,2.261.826,0,.112-.112.267-.472.447-.335.18-.4.18-.422.87-.025.758-.043,1.634-.043,2.683,0,1.876.068,4.273.2,7.224v.031Zm-10.354-9.342a4.722,4.722,0,0,0-1.255-1.429c-.137-.112-.2-.18-.2-.2,0-.043.068-.043.18-.043,1.634,0,2.547.919,2.547,1.5a.675.675,0,0,1-.627.7A.775.775,0,0,1,156.557,16.386Z" fill="#262626"/>
        <path id="パス_6" data-name="パス 6" d="M177.464,25.417a.781.781,0,0,1-.758.758c-.292,0-.534-.2-.534-.671v-.025c.068-2.3.155-5.882.2-9.031-1.677,3.155-5.006,5.162-5.435,5.162a.047.047,0,0,1-.043-.043c0-.043.087-.155.335-.311,1.205-.807,4.826-5.3,5.162-7.336v-.627a28.414,28.414,0,0,0-3.509.2h-.025c-.267,0-.894-.826-.894-1.075a35.736,35.736,0,0,0,4.429.292c0-.335-.025-.627-.025-.919,0-.516,0-2.081-.068-3.062a25.425,25.425,0,0,1-2.975.224c-.087,0-.87,0-.87-.112,0-.043.137-.087.447-.112,1.876-.137,5.385-1.05,6.124-1.876.068-.068.068-.137.137-.137s1.478.981,1.478,1.23c0,.112-.155.2-.379.2a1.33,1.33,0,0,1-.267-.043,1.372,1.372,0,0,0-.267-.043.829.829,0,0,0-.335.068,10.96,10.96,0,0,1-1.478.36.211.211,0,0,1,.043.112c0,.087-.068.2-.292.311-.267.155-.292.155-.311.894-.025.646-.068,1.677-.068,2.932H178.6a.411.411,0,0,0,.248-.18,5.243,5.243,0,0,1,.758-1.093.311.311,0,0,1,.18-.068c.043,0,.068.025.087.025.6.267,1.609,1.255,1.609,1.609,0,.137-.087.267-.379.267h-3.826v2.46h.267c1.609,0,3.2.87,3.2,1.944,0,.335-.18.584-.472.584a1.227,1.227,0,0,1-.807-.534,6.713,6.713,0,0,0-2.193-1.857c.025,3.062.087,6.615.18,9.5v.025Zm8.988.155c.137-1.814.224-4.093.248-6.373l-1.23.379a45.471,45.471,0,0,0-4.627,1.609.256.256,0,0,1-.137.025,1.824,1.824,0,0,1-1.2-.783A56.551,56.551,0,0,0,185.4,19l1.3-.4V16.92c0-2.348-.025-4.516-.043-6.037a18.27,18.27,0,0,0-.224-4.093.792.792,0,0,1-.043-.18c0-.043.025-.043.087-.043.267,0,2.3.267,2.3.758,0,.155-.155.335-.447.491-.422.248-.447.224-.534.938-.087.7-.112,2.056-.112,3.826,0,1.609.025,3.578.068,5.677l.963-.292c.155-.043.224-.155.919-1.721.043-.112.224-.137.311-.137.267.025,2.3.584,2.3,1.118,0,.137-.087.267-.379.36l-4.112,1.273.155,6.615a.813.813,0,0,1-.87.783.549.549,0,0,1-.584-.6v-.081Zm-3.044-9.28a6.818,6.818,0,0,0-1.9-1.522c-.18-.087-.267-.137-.267-.18a2.282,2.282,0,0,1,.826-.087c.248,0,2.615.025,2.615,1.385a.715.715,0,0,1-.646.783A.85.85,0,0,1,183.408,16.292Zm.447-4.627a6.608,6.608,0,0,0-1.745-1.832c-.18-.112-.248-.18-.248-.224,0-.025.068-.025.18-.025,1.789,0,3.217.826,3.217,1.832a.742.742,0,0,1-.671.807A.9.9,0,0,1,183.856,11.665Z" fill="#262626"/>
        <path id="パス_7" data-name="パス 7" d="M210.558,11.932c0,.18-.155.36-.584.491s-.87.758-1.3,1.41c-3.553,5.23-7.155,9.031-12.857,10.777a1.89,1.89,0,0,1-.559.112c-.087,0-.112-.025-.112-.043,0-.087.224-.267.6-.422,4.963-1.988,8.7-6.149,12.187-11.628a1.332,1.332,0,0,0,.248-.516c0-.155-.137-.267-.6-.267a10.071,10.071,0,0,0-2.572.491,1.66,1.66,0,0,1-.559.087.954.954,0,0,1-.36-.068c-2.572,3.062-4.472,5.1-6.932,6.174a1.106,1.106,0,0,1-.379.112c-.043,0-.068-.025-.068-.043,0-.068.087-.18.292-.311a24.614,24.614,0,0,0,6.416-7.112,1.006,1.006,0,0,0,.2-.584c0-.379-.36-.584-.851-.714-.112-.043-.2-.112-.2-.2a.806.806,0,0,1,.826-.491c.826,0,1.814.826,1.814,1.429a1.587,1.587,0,0,1-.447.963c.559-.043,1.9-.267,2.907-.422a1.607,1.607,0,0,0,.671-.292,1,1,0,0,1,.491-.2C209.26,10.659,210.558,11.553,210.558,11.932Z" fill="#262626"/>
        <path id="パス_8" data-name="パス 8" d="M229.608,14.727c-.18,8.9-7.087,11.224-7.671,11.224-.043,0-.068,0-.068-.025,0-.068.224-.267.894-.671,3.329-2.037,5.565-5.789,5.745-10.752.043-.963.043-1.652.087-2.727a6.514,6.514,0,0,0,.025-.671c0-1.59-.4-1.944-1.186-2.193-.2-.068-.311-.137-.311-.224a.813.813,0,0,1,.714-.491c.6,0,2.528,1.05,2.528,1.7a.946.946,0,0,1-.137.4C229.857,10.969,229.677,11.4,229.608,14.727Zm-4.714,2.329c0,.422-.224,1.478-.714,1.478-.267,0-.534-.379-.534-1.162a1.881,1.881,0,0,1,.025-.36c.087-.981.137-1.677.137-2.416,0-4.05-.491-4.18-1.522-4.385-.2-.025-.335-.087-.335-.2,0-.068.248-.491.938-.491.584,0,2.124.646,2.124,1.41a1.074,1.074,0,0,1-.155.447,2.532,2.532,0,0,0-.155,1.006c0,1.5.025,2.907.155,4.205C224.869,16.783,224.894,16.92,224.894,17.056Z" fill="#262626"/>
        <path id="パス_9" data-name="パス 9" d="M256.69,20.9c0,.292-.311.534-.714.534a.866.866,0,0,1-.248-.025,17.446,17.446,0,0,0-3.913-.422,38.221,38.221,0,0,0-6.839.758,11.127,11.127,0,0,1-1.522.335c-.758,0-2.391-.646-2.391-1.634,0-.2.087-.292.224-.292a1.506,1.506,0,0,1,.516.18,4.762,4.762,0,0,0,2.1.472h.224c2.012-.155,5.789-.739,8.584-.87.894-.043,1.075-.267,1.54-.267C255.031,19.671,256.69,20.274,256.69,20.9ZM253.6,13.677c0,.311-.311.584-.851.6a57.933,57.933,0,0,0-6.3.963,3.959,3.959,0,0,1-.671.068c-1.273,0-2.037-.7-2.037-1.3,0-.18.068-.248.137-.248a.474.474,0,0,1,.292.137,2.682,2.682,0,0,0,1.609.379,9.828,9.828,0,0,0,1.093-.068c1.205-.155,2.211-.422,3.019-.559.919-.155,1.23-.758,2.081-.758C253.578,12.895,253.6,13.59,253.6,13.677Z" fill="#262626"/>
        <path id="パス_10" data-name="パス 10" d="M269.367,18.82c0,.36-.18.6-.472.6a1.048,1.048,0,0,1-.714-.447,11.724,11.724,0,0,0-1.7-1.634.313.313,0,0,1-.112-.224c0-.087.068-.18.224-.18C267.553,16.963,269.367,17.727,269.367,18.82Zm7.112-2.391c0,.422-.516.807-.714,1.162-3.6,6.683-8.205,7.69-8.764,7.69-.112,0-.155-.025-.155-.087s.18-.224.534-.379c4.54-1.926,7.423-7.51,7.423-8.274,0-.267-.2-.4-.627-.491-.224-.043-.311-.137-.311-.248,0-.2.36-.534.758-.534C275.2,15.267,276.479,15.826,276.479,16.429Zm-4.41,1.273c0,.379-.2.646-.491.646-.224,0-.472-.155-.714-.516a17.615,17.615,0,0,0-1.453-1.876.4.4,0,0,1-.112-.224c0-.112.068-.155.18-.155C269.97,15.578,272.069,16.448,272.069,17.7Z" fill="#262626"/>
        <path id="パス_11" data-name="パス 11" d="M300,11.932c0,.18-.155.36-.584.491s-.87.758-1.3,1.41c-3.553,5.23-7.155,9.031-12.857,10.777a1.89,1.89,0,0,1-.559.112c-.087,0-.112-.025-.112-.043,0-.087.224-.267.6-.422,4.963-1.988,8.7-6.149,12.187-11.628a1.332,1.332,0,0,0,.248-.516c0-.155-.137-.267-.6-.267a10.071,10.071,0,0,0-2.572.491,1.66,1.66,0,0,1-.559.087.979.979,0,0,1-.36-.068c-2.572,3.062-4.472,5.1-6.932,6.174a1.106,1.106,0,0,1-.379.112c-.043,0-.068-.025-.068-.043,0-.068.087-.18.292-.311a24.615,24.615,0,0,0,6.416-7.112,1.006,1.006,0,0,0,.2-.584c0-.379-.36-.584-.851-.714-.112-.043-.2-.112-.2-.2a.806.806,0,0,1,.826-.491c.826,0,1.814.826,1.814,1.429a1.587,1.587,0,0,1-.447.963c.559-.043,1.9-.267,2.907-.422a1.607,1.607,0,0,0,.671-.292,1,1,0,0,1,.491-.2C298.7,10.659,300,11.553,300,11.932Z" fill="#262626"/>
      </g>
      <g id="グループ_2" data-name="グループ 2">
        <path id="パス_12" data-name="パス 12" d="M132.314,38.057a.225.225,0,0,1-.087.211c-.925.106-1.553.373-1.64,1.193-.062.609-.075,1.5-.075,2.472,0,1.205.031,2.534.062,3.547.043,1.7,0,2.267,1.28,2.385a.444.444,0,0,1,.118.286c0,.087-.043.149-.161.149,0,0-1.106-.087-2.224-.087a12.136,12.136,0,0,0-1.522.087h-.031c-.106,0-.161-.062-.161-.137a.494.494,0,0,1,.161-.3c1.224-.161,1.4-.3,1.4-1.714V45.7c-.012-.7-.031-1.95-.031-3.143,0-1.044.012-2.025.043-2.547,0-.062-.012-.087-.043-.087-.075,0-2.491,4.727-3.832,7.7-.193.447-.267.565-.509.565h-.012c-.161,0-.224-.161-.311-.46a26.181,26.181,0,0,0-1.447-3.292c-.714-1.522-1.4-2.82-1.969-4.217-.075-.193-.118-.267-.149-.267-.137,0-.329,4.708-.329,4.963.012,2.82.106,2.8,1.267,2.969a.37.37,0,0,1,.118.267.162.162,0,0,1-.149.161c-.012,0-.957-.106-1.938-.106a7.949,7.949,0,0,0-1.385.106h-.031c-.075,0-.118-.062-.118-.149a.447.447,0,0,1,.137-.286c1.255-.118,1.416-.64,1.534-2.8.031-.714.236-3.938.36-5.292,0-.087.012-.161.012-.236,0-1.075-.683-1.18-1.745-1.28a.362.362,0,0,1-.118-.255c0-.106.062-.193.224-.193,0,0,.832.075,1.64.075a7.687,7.687,0,0,0,.882-.043h.043c.075,0,.087.031.106.161a8.274,8.274,0,0,0,.4,1.106c1.18,3.012,2.845,5.621,3.385,7.124.012.062.031.106.043.106a.207.207,0,0,1,.043-.062c3.068-5.975,3.814-7.472,3.95-8.081.043-.161.106-.286.193-.3,0,0,.46.012,1.031.012a11.153,11.153,0,0,0,1.5-.075C132.27,37.833,132.314,37.957,132.314,38.057Z" fill="#262626"/>
        <path id="パス_13" data-name="パス 13" d="M136.159,48.511a2.971,2.971,0,0,1-3.068-3.1,3.083,3.083,0,0,1,3.1-3.162,3.131,3.131,0,0,1-.031,6.261Zm-.043-5.919c-1.28,0-1.894,1.224-1.894,2.5,0,.478.118,3.044,2.056,3.044,1.478,0,1.8-1.416,1.8-2.491C138.078,44.74,137.767,42.591,136.115,42.591Z" fill="#262626"/>
        <path id="パス_14" data-name="パス 14" d="M144.774,42.653a.851.851,0,0,1-.745.745.477.477,0,0,1-.211-.043,1.4,1.4,0,0,0-.627-.161.969.969,0,0,0-.894.957c-.012.161-.012.435-.012.714,0,.553.012,1.193.012,1.329,0,1.4.031,1.578,1.18,1.727a.249.249,0,0,1,.087.211c0,.087-.043.161-.118.161-.012,0-.907-.075-1.8-.075a7.462,7.462,0,0,0-1.236.075h-.012a.141.141,0,0,1-.137-.149.335.335,0,0,1,.118-.211c.938-.075.969-.565.969-1.7v-1.8c-.012-.758-.012-1.311-.7-1.46a.137.137,0,0,1,0-.255,7.425,7.425,0,0,0,1.429-.565.219.219,0,0,1,.18.236l-.043.758v.031s0,.062.087.062a3.012,3.012,0,0,1,1.863-.981C144.612,42.25,144.774,42.43,144.774,42.653Z" fill="#262626"/>
        <path id="パス_15" data-name="パス 15" d="M149.886,42.653a.851.851,0,0,1-.745.745.477.477,0,0,1-.211-.043,1.4,1.4,0,0,0-.627-.161.969.969,0,0,0-.894.957c-.012.161-.012.435-.012.714,0,.553.012,1.193.012,1.329,0,1.4.031,1.578,1.18,1.727a.249.249,0,0,1,.087.211c0,.087-.043.161-.118.161-.012,0-.907-.075-1.8-.075a7.462,7.462,0,0,0-1.236.075h-.012a.141.141,0,0,1-.137-.149.335.335,0,0,1,.118-.211c.938-.075.969-.565.969-1.7v-1.8c-.012-.758-.012-1.311-.7-1.46a.137.137,0,0,1,0-.255,7.425,7.425,0,0,0,1.429-.565.219.219,0,0,1,.18.236l-.043.758v.031s0,.062.087.062a3.012,3.012,0,0,1,1.863-.981C149.724,42.25,149.886,42.43,149.886,42.653Z" fill="#262626"/>
        <path id="パス_16" data-name="パス 16" d="M153.706,48.138c0,.087-.043.149-.106.149-.012,0-.832-.087-1.727-.087a6.907,6.907,0,0,0-1.28.087h-.031c-.062,0-.106-.062-.106-.137a.288.288,0,0,1,.118-.224c1.056-.137,1.056-.789,1.056-2.193,0-.491-.031-.981-.043-1.578-.031-.733-.031-.938-.733-1.087-.043-.012-.075-.087-.075-.161s.012-.137.075-.137a5.787,5.787,0,0,0,1.683-.627c.012-.012.031-.012.062-.012.062,0,.106.075.106.161-.043.36-.118,1.95-.118,3.578v.863c0,.609.087,1.13,1.031,1.193A.345.345,0,0,1,153.706,48.138ZM152,39.566a.847.847,0,0,1-.832-.863.832.832,0,1,1,1.665,0A.851.851,0,0,1,152,39.566Z" fill="#262626"/>
        <path id="パス_17" data-name="パス 17" d="M156.072,48.467a3.858,3.858,0,0,1-1.447-.3c-.118-.062-.149-.18-.3-1.267,0-.087.106-.137.211-.137a.25.25,0,0,1,.211.087c.193.565.534,1.236,1.28,1.236A1.049,1.049,0,0,0,157.147,47a1.456,1.456,0,0,0-.807-1.205c-1.255-.776-1.64-1.162-1.64-2.044,0-1.106,1.106-1.553,1.907-1.553.565,0,1.162.118,1.28.36a4.328,4.328,0,0,1,.161.938c0,.075-.118.118-.224.118a.12.12,0,0,1-.106-.043c-.255-.534-.553-1.044-1.13-1.044a.91.91,0,0,0-1.031.957c0,.491.267.683.789,1,1.236.745,1.745,1.267,1.745,2.205A1.831,1.831,0,0,1,156.072,48.467Z" fill="#262626"/>
        <path id="パス_18" data-name="パス 18" d="M168.135,48.287c-.882,0-2.193-.106-3.385-.106a13.278,13.278,0,0,0-1.553.087h-.031c-.062,0-.106-.062-.106-.137a.4.4,0,0,1,.161-.286c.981-.087,1.118-.286,1.255-.683a47.411,47.411,0,0,0,.149-5.379,23.869,23.869,0,0,0-.106-2.7c-.075-.286-.087-.671-1.193-.671a.277.277,0,0,1-.118-.236.135.135,0,0,1,.118-.149h.012a8.254,8.254,0,0,0,.882.031c1.329,0,2.671-.193,3.758-.193,3.1,0,5.814,1.627,5.814,5.155C173.8,45.871,171.743,48.287,168.135,48.287Zm-.4-9.988c-1.478,0-1.82.149-1.907.627a31.132,31.132,0,0,0-.118,4.547c0,.789.012,1.491.012,1.876v.211c0,1.193.012,2.311,2.373,2.311,1.851,0,4.4-.957,4.4-4.621A4.628,4.628,0,0,0,167.731,38.3Z" fill="#262626"/>
        <path id="パス_19" data-name="パス 19" d="M178.122,48.523a2.832,2.832,0,0,1-2.845-3.068,3.115,3.115,0,0,1,2.938-3.217,1.9,1.9,0,0,1,2.056,1.565c0,.211-.18.64-1.012.683-.733.031-1.832.043-2.534.043-.311,0-.435.087-.435.658a2.4,2.4,0,0,0,2.249,2.64,1.913,1.913,0,0,0,1.46-.565.136.136,0,0,1,.106-.043.285.285,0,0,1,.236.267C180.34,47.616,179.719,48.523,178.122,48.523Zm-.149-5.888a1.734,1.734,0,0,0-1.6,1.522c0,.043.012.075.043.075h.031a11.72,11.72,0,0,1,2.249-.342c.137-.012.447-.075.447-.329A1.1,1.1,0,0,0,177.973,42.635Z" fill="#262626"/>
        <path id="パス_20" data-name="パス 20" d="M188.377,48.15a.131.131,0,0,1-.137.149c-.012,0-.925-.075-1.776-.075a5.668,5.668,0,0,0-1.118.075h-.031c-.087,0-.118-.062-.118-.137a.323.323,0,0,1,.118-.236c.969-.075,1-.435,1-2.323,0-.4,0-.981-.012-1.205a1.368,1.368,0,0,0-1.385-1.447,1.557,1.557,0,0,0-1.652,1.13c-.031.36-.043.64-.043,1.95a10.551,10.551,0,0,0,.062,1.224c.062.447.342.671,1,.671a.291.291,0,0,1,.087.211c0,.087-.043.161-.118.161,0,0-.882-.062-1.727-.062a7.979,7.979,0,0,0-1.162.062h-.012c-.062,0-.106-.062-.106-.149a.312.312,0,0,1,.106-.224c.863-.118.882-.255.938-2V44.448c0-.863,0-1.267-.671-1.4a.156.156,0,0,1-.118-.161.16.16,0,0,1,.106-.161,5.527,5.527,0,0,0,1.447-.565.135.135,0,0,1,.062-.012c.062,0,.087.062.087.193,0,.161-.012.491-.012.745v.18c0,.031.012.062.043.062a.064.064,0,0,0,.043-.031,2.508,2.508,0,0,1,2-1.031,1.883,1.883,0,0,1,2.044,1.926v1.851c0,1.447.043,1.8.969,1.894A.322.322,0,0,1,188.377,48.15Z" fill="#262626"/>
        <path id="パス_21" data-name="パス 21" d="M191.688,48.5a1.524,1.524,0,0,1-1.652-1.491c-.031-.435-.043-.957-.043-1.46,0-.807.031-1.627.062-2.193v-.062c0-.137-.031-.137-.075-.137h-.13c-.193,0-.491.062-.64.075-.087,0-.137-.118-.137-.236s.031-.224.106-.236a2.524,2.524,0,0,0,1.6-1.491.269.269,0,0,1,.255-.193c.118,0,.211.062.211.161,0,.385-.062.938-.062,1.031,0,.149.031.211.137.211a14.232,14.232,0,0,0,1.832-.211h.043c.137,0,.149.149.149.255,0,.211-.075.447-.137.447-.894.012-1.8.118-1.926.118-.18,0-.149.075-.161.161-.043.447-.075,1.18-.075,1.876,0,1.727.075,2.609,1.075,2.609a3.778,3.778,0,0,0,1.149-.236h.012c.062,0,.18.149.18.255A2.348,2.348,0,0,1,191.688,48.5Z" fill="#262626"/>
        <path id="パス_22" data-name="パス 22" d="M198.558,48.511a.953.953,0,0,1-.981-.807c-.043-.137-.043-.224-.075-.224-.012,0-.031.012-.043.043a2.874,2.874,0,0,1-2,1.044,1.3,1.3,0,0,1-1.354-1.255,1.652,1.652,0,0,1,1.056-1.354,18.494,18.494,0,0,0,2.311-.938c.031-.012.075,0,.087-.118,0-.075.012-.342.043-.683,0-.224,0-1.491-1.044-1.491a.838.838,0,0,0-.807.609c-.012.286-.031.553-.584.807a.659.659,0,0,1-.286.062c-.211,0-.373-.118-.373-.311a2.558,2.558,0,0,1,2.46-1.64,1.456,1.456,0,0,1,1.671,1.64v.211c-.075.882-.137,2.075-.137,2.4,0,.64.255,1.2.584,1.2a1.605,1.605,0,0,0,.64-.255c.012-.012.031-.012.062-.012.087,0,.193.18.193.286A1.614,1.614,0,0,1,198.558,48.511Zm-1.012-2.82c0-.118-.012-.18-.075-.18s-1.534.658-1.7.745a.73.73,0,0,0-.416.7c0,.193.193.957.851.957a1.786,1.786,0,0,0,1.342-1.329v-.031a2.649,2.649,0,0,1-.012-.311c0-.149,0-.286.012-.416Z" fill="#262626"/>
        <path id="パス_23" data-name="パス 23" d="M203.732,48.107a.172.172,0,0,1-.149.18s-.807-.062-1.64-.062a7.928,7.928,0,0,0-1.28.075h-.031a.123.123,0,0,1-.118-.137.271.271,0,0,1,.118-.224c.863-.043.894-.553.925-.907.031-.416.062-1.236.062-4.249,0-1.342-.012-2.907-.075-3.814-.031-.758-.236-.789-.64-.894-.137-.031-.18-.106-.18-.18a.227.227,0,0,1,.106-.193,6.735,6.735,0,0,0,1.7-.565c.012-.012.043-.012.075-.012a.126.126,0,0,1,.137.137v.006c-.137,1.5-.149,4.087-.149,7.025,0,.6.012,2.342.043,2.745s.137.82,1.012.907A.226.226,0,0,1,203.732,48.107Z" fill="#262626"/>
        <path id="パス_24" data-name="パス 24" d="M217.881,47.436c-.043.211-.012.161-.137.236a6.5,6.5,0,0,1-3.118.807c-3.068,0-5.814-1.832-5.814-5.528a5.433,5.433,0,0,1,5.578-5.323c1.311,0,2.087.267,2.994.267h.137c.36,0,.4.012.416.36,0,.416.224,1.5.236,2.056,0,.087-.149.137-.255.137-.075,0-.137-.012-.149-.062a3.328,3.328,0,0,0-3.441-2.28c-2.056,0-4.174,1.609-4.174,4.845s2.174,5.025,4.609,5.025a3.675,3.675,0,0,0,3.087-2.323c.012-.043.087-.062.149-.062.137,0,.3.075.3.193a.141.141,0,0,1-.031.106A6.049,6.049,0,0,0,217.881,47.436Z" fill="#262626"/>
        <path id="パス_25" data-name="パス 25" d="M222.825,48.107a.172.172,0,0,1-.149.18s-.807-.062-1.64-.062a7.928,7.928,0,0,0-1.28.075h-.031a.123.123,0,0,1-.118-.137.271.271,0,0,1,.118-.224c.863-.043.894-.553.925-.907.031-.416.062-1.236.062-4.249,0-1.342-.012-2.907-.075-3.814-.031-.758-.236-.789-.64-.894-.137-.031-.18-.106-.18-.18a.227.227,0,0,1,.106-.193,6.735,6.735,0,0,0,1.7-.565c.012-.012.043-.012.075-.012a.126.126,0,0,1,.137.137v.006c-.137,1.5-.149,4.087-.149,7.025,0,.6.012,2.342.043,2.745s.137.82,1.012.907A.226.226,0,0,1,222.825,48.107Z" fill="#262626"/>
        <path id="パス_26" data-name="パス 26" d="M226.745,48.138c0,.087-.043.149-.106.149-.012,0-.832-.087-1.727-.087a6.907,6.907,0,0,0-1.28.087H223.6c-.062,0-.106-.062-.106-.137a.288.288,0,0,1,.118-.224c1.056-.137,1.056-.789,1.056-2.193,0-.491-.031-.981-.043-1.578-.031-.733-.031-.938-.733-1.087-.043-.012-.075-.087-.075-.161s.012-.137.075-.137a5.787,5.787,0,0,0,1.683-.627c.012-.012.031-.012.062-.012.062,0,.106.075.106.161-.043.36-.118,1.95-.118,3.578v.863c0,.609.087,1.13,1.031,1.193A.312.312,0,0,1,226.745,48.138Zm-1.7-8.572a.847.847,0,0,1-.832-.863.832.832,0,1,1,1.665,0A.851.851,0,0,1,225.049,39.566Z" fill="#262626"/>
        <path id="パス_27" data-name="パス 27" d="M234.6,48.15a.131.131,0,0,1-.137.149c-.012,0-.925-.075-1.776-.075a5.668,5.668,0,0,0-1.118.075h-.031c-.087,0-.118-.062-.118-.137a.323.323,0,0,1,.118-.236c.969-.075,1-.435,1-2.323,0-.4,0-.981-.012-1.205a1.368,1.368,0,0,0-1.385-1.447,1.557,1.557,0,0,0-1.652,1.13c-.031.36-.043.64-.043,1.95a10.551,10.551,0,0,0,.062,1.224c.062.447.342.671,1,.671a.291.291,0,0,1,.087.211c0,.087-.043.161-.118.161,0,0-.882-.062-1.727-.062a7.979,7.979,0,0,0-1.162.062h-.012c-.062,0-.106-.062-.106-.149a.312.312,0,0,1,.106-.224c.863-.118.882-.255.938-2V44.448c0-.863,0-1.267-.671-1.4a.156.156,0,0,1-.118-.161.16.16,0,0,1,.106-.161,5.527,5.527,0,0,0,1.447-.565.135.135,0,0,1,.062-.012c.062,0,.087.062.087.193,0,.161-.012.491-.012.745v.18c0,.031.012.062.043.062a.064.064,0,0,0,.043-.031,2.508,2.508,0,0,1,2-1.031,1.883,1.883,0,0,1,2.044,1.926v1.851c0,1.447.043,1.8.969,1.894A.3.3,0,0,1,234.6,48.15Z" fill="#262626"/>
        <path id="パス_28" data-name="パス 28" d="M238.509,48.138c0,.087-.043.149-.106.149-.012,0-.832-.087-1.727-.087a6.907,6.907,0,0,0-1.28.087h-.031c-.062,0-.106-.062-.106-.137a.288.288,0,0,1,.118-.224c1.056-.137,1.056-.789,1.056-2.193,0-.491-.031-.981-.043-1.578-.031-.733-.031-.938-.733-1.087-.043-.012-.075-.087-.075-.161s.012-.137.075-.137a5.787,5.787,0,0,0,1.683-.627c.012-.012.031-.012.062-.012.062,0,.106.075.106.161-.043.36-.118,1.95-.118,3.578v.863c0,.609.087,1.13,1.031,1.193A.345.345,0,0,1,238.509,48.138Zm-1.7-8.572a.847.847,0,0,1-.832-.863.832.832,0,1,1,1.665,0A.843.843,0,0,1,236.807,39.566Z" fill="#262626"/>
        <path id="パス_29" data-name="パス 29" d="M242.354,48.5a2.771,2.771,0,0,1-2.938-2.876,3.221,3.221,0,0,1,3.292-3.367,5.582,5.582,0,0,1,.82.075,1.735,1.735,0,0,0,.224.012.857.857,0,0,0,.161-.012h.012c.373,0,.714.671.714,1.149,0,.255-.118.329-.236.329-.267,0-.627-.478-.627-.478a1.765,1.765,0,0,0-1.3-.683,2.091,2.091,0,0,0-2.044,2.342c0,2.671,2.1,2.727,2.46,2.727h.043a2.3,2.3,0,0,0,1.46-.658.193.193,0,0,1,.149-.062.238.238,0,0,1,.211.255A2.686,2.686,0,0,1,242.354,48.5Z" fill="#262626"/>
      </g>
      <path id="パス_30" data-name="パス 30" d="M45.933,12.609C44.119-5.7,25.013.391,23.019,3.6,21.025.391,1.919-5.7.106,12.609c-1.857,11.752,21.7,26.659,22.889,27.4v.031a.026.026,0,0,1,.05,0v-.031C24.237,39.268,47.79,24.361,45.933,12.609Z" fill="#e6f5f8"/>
      <path id="パス_31" data-name="パス 31" d="M.845,17.913C2.776,30.908,5.6,40.815,12.733,48.144c2.721-1.528,9.907-8.106,9.907-8.106C18.025,35.846,7.665,29.349.845,17.913Z" fill="#cfe0e7"/>
      <path id="パス_32" data-name="パス 32" d="M45,17.913c-1.932,12.994-4.758,22.9-11.882,30.231-2.721-1.528-9.907-8.106-9.907-8.106C27.821,35.846,38.181,29.349,45,17.913Z" fill="#cfe0e7"/>
    </g>
  </g>
</svg>
